<svg xmlns="http://www.w3.org/2000/svg" viewBox="0 0 1800 1848"><defs><style>.cls-1{fill:#0c0c0c;}.cls-1,.cls-2,.cls-3{fill-rule:evenodd;}.cls-2{fill:#f40909;}.cls-3{fill:none;stroke:#0c0c0c;stroke-miterlimit:10;stroke-width:45px;}.cls-4{fill:#fff;}</style></defs><g id="Layer_2" data-name="Layer 2"><path class="cls-1" d="M1371.92,108.32v1420.2q-12.08,3.17-23.78,6.4c-131.76,36.43-229.12,78.64-298.18,121q-12.49,7.68-23.78,15.37V183.24q11.58-.87,23.78-1.93c93.49-8.19,210.57-25.69,298.18-63v-10Z"/><path class="cls-2" d="M1050,181.31V1656q-12.49,7.68-23.78,15.37c-68.23,46.38-103.38,92.18-113.41,130h-19.9c-10-37.84-45.2-83.66-113.48-130.06q-11.29-7.68-23.78-15.36V181.3q12.18,1.06,23.78,1.93c58.5,4.38,104.84,5.13,124,5.22h.09a.89.89,0,0,0,.23,0c19.9-.13,65.4-.94,122.51-5.21Q1037.76,182.37,1050,181.31Z"/><path class="cls-2" d="M1769.94,977.57v76.92c-8.72,132.86-58.64,397.27-314.5,453.87q-43.79,9.69-83.52,20.16-12.08,3.17-23.78,6.4V96.32l106-8L1677.2,379.4s-229.67,62.84-155.52,328.32C1579.5,914.72,1754.64,972.85,1769.94,977.57Z"/><path class="cls-2" d="M455.8,94.32V1534.46l-22.15-6q-39.72-10.44-83.45-20.14C55.48,1443.16,34,1102.24,34,1004.25c0-16.71.63-26.36.63-26.36S223.48,924.25,284,707.72C358.11,442.24,128.44,379.4,128.44,379.4L351.54,88.32Z"/><path class="cls-1" d="M779.39,183.23V1671.28q-11.29-7.68-23.78-15.36c-69.35-42.57-167.23-85-299.81-121.46l-22.15-6V108.32H455.8v9.23c87.77,37.83,205.72,55.51,299.81,63.75Q767.79,182.36,779.39,183.23Z"/><path class="cls-3" d="M909.68,1823.72a86.67,86.67,0,0,1,3.09-22.38c10-37.83,45.18-83.63,113.41-130q11.29-7.69,23.78-15.37c69.06-42.4,166.42-84.61,298.18-121q11.71-3.23,23.78-6.4,39.75-10.45,83.52-20.16c255.86-56.6,305.78-321,314.5-453.87,3-46.28,1.07-76.6,1.07-76.6s-.37-.1-1.07-.32c-15.3-4.72-190.44-62.85-248.26-269.85C1447.53,442.24,1677.2,379.4,1677.2,379.4L1454.1,88.32l-18.82-24.56a212.06,212.06,0,0,1-30.6,24.56,311.35,311.35,0,0,1-34.85,20q-10.49,5.21-21.69,10c-87.61,37.33-204.69,54.83-298.18,63q-12.18,1-23.78,1.93c-57.11,4.27-102.61,5.08-122.51,5.21h-.32c-6.84.05-10.56,0-10.56,0"/><path class="cls-3" d="M896,1823.72a86.67,86.67,0,0,0-3.09-22.38c-10-37.84-45.2-83.66-113.48-130.06q-11.29-7.68-23.78-15.36c-69.35-42.57-167.23-85-299.81-121.46q-10.92-3-22.15-6-39.72-10.44-83.45-20.14C55.48,1443.16,34,1102.24,34,1004.25c0-16.71.63-26.36.63-26.36S223.48,924.25,284,707.72C358.11,442.24,128.44,379.4,128.44,379.4L351.54,88.32l18.82-24.56A212.06,212.06,0,0,0,401,88.32a311.35,311.35,0,0,0,34.85,20q9.69,4.8,20,9.23c87.77,37.83,205.72,55.51,299.81,63.75q12.18,1.06,23.78,1.93c58.5,4.38,104.84,5.13,124,5.22h.09a.89.89,0,0,0,.23,0c6,0,9.19,0,9.19,0"/></g><g id="Layer_3" data-name="Layer 3"><path class="cls-4" d="M982,1090.45q5.79-5.13,8.36-14.13,2.55-7.71,2.56-19.91t-5.13-29.55l-19.91-62.94H815l-19.27,62.94q-5.79,17.36-5.78,29.55t2.57,19.91q2.55,9,8.35,14.13H690.35a86.34,86.34,0,0,0,18-14.13,181.56,181.56,0,0,0,15.42-19.91,118.38,118.38,0,0,0,14.13-29.55L845.15,696.08q5.13-17.34,5.13-29.23t-2.57-19.59a33.37,33.37,0,0,0-8.35-14.77H894A70.91,70.91,0,0,1,936,646a68,68,0,0,1,26,36l112.41,344.91q5.13,17.36,13.49,29.55a179.18,179.18,0,0,0,15.41,19.91,68.39,68.39,0,0,0,18,14.13ZM955,920.88,891.39,716.63,828.45,920.88Z"/><path class="cls-4" d="M625.18,733.54q36.6,0,64.23-9.32t46.88-20.87a179.51,179.51,0,0,0,38.54-30.19l-5.14,88.64q-19.26,5.78-41.75,10.27Q708,775.93,682,779.14a465.82,465.82,0,0,1-56.84,3.21A272.47,272.47,0,0,1,543.6,769.5a215.6,215.6,0,0,1-74.82-41.1Q435,700.14,413.86,655.17t-21.2-108.54q0-60.37,20.56-104.7t53-73.22a218.29,218.29,0,0,1,71.61-43q39.18-14.12,75.79-14.13a406.48,406.48,0,0,1,54.28,3.21q23.45,3.22,39.5,7.07a203.11,203.11,0,0,1,32.12,10.28v89.28A176.12,176.12,0,0,0,708,391.19q-15.4-11.56-37.25-21.2T620,360.36A132.14,132.14,0,0,0,571.22,370q-24.42,9.64-43.67,31.48T496.07,459q-12.21,35.66-12.2,87.68,0,50.75,12.2,86.06t32.12,57.81q19.9,22.49,45.28,32.76A136.59,136.59,0,0,0,625.18,733.54Z"/><path class="cls-4" d="M1475.91,970.23a69.69,69.69,0,0,0-7.86,17.12q-3.36,10.39-3.36,25.55v289.15q0,15.15,3.36,25.82a68.76,68.76,0,0,0,7.86,17.41,41.38,41.38,0,0,0,11.79,12.35H1365.87a45.18,45.18,0,0,0,11.23-12.35,76.14,76.14,0,0,0,8.14-17.41q3.65-10.65,3.65-25.82V1178.53H1237.3v123.52q0,15.15,3.37,25.82a68.41,68.41,0,0,0,7.86,17.41,41.13,41.13,0,0,0,11.79,12.35H1138.48a45,45,0,0,0,11.23-12.35,76.14,76.14,0,0,0,8.14-17.41q3.64-10.65,3.65-25.82V1012.9q0-15.17-3.65-25.55a77.6,77.6,0,0,0-8.14-17.12,54.48,54.48,0,0,0-11.23-12.91h121.84a48.74,48.74,0,0,0-11.79,12.86,69.25,69.25,0,0,0-7.86,17.09q-3.37,10.35-3.37,25.45v123.14h151.59V1012.72q0-15.11-3.65-25.45a77.53,77.53,0,0,0-8.14-17.09,54.81,54.81,0,0,0-11.23-12.86H1487.7A49,49,0,0,0,1475.91,970.23Z"/></g></svg>