<svg xmlns="http://www.w3.org/2000/svg" xmlns:xlink="http://www.w3.org/1999/xlink" viewBox="0 0 7129.3 1848"><defs><style>.cls-1{fill:#c4c4c4;}.cls-12,.cls-2{fill:none;}.cls-2{stroke:#000;}.cls-3{mask:url(#mask);}.cls-4,.cls-8,.cls-9{opacity:0.3;}.cls-11,.cls-5{fill:#f40909;}.cls-10,.cls-11,.cls-12,.cls-6,.cls-8{fill-rule:evenodd;}.cls-10,.cls-7,.cls-8{fill:#0c0c0c;}.cls-13,.cls-9{fill:#fff;}.cls-12{stroke:#0c0c0c;stroke-miterlimit:10;stroke-width:45px;}</style><mask id="mask" x="60.6" y="61.97" width="1690.56" height="1758.57" maskUnits="userSpaceOnUse"><g id="mask0_3_7" data-name="mask0 3 7"><path class="cls-1" d="M392.86,62.76c87.21,97.42,377.2,127.78,513.87,130.91,136.69-3.13,426.66-33.49,513.88-130.91L1663.11,385c-72.49,4.75-204.52,83.25-152.68,359.2,45.55,179.6,239.93,233.41,239.93,233.41s16.68,357.26-197.59,483c-87.25,54.46-188.62,68.72-216.84,77.16S926.62,1639.6,909.3,1820.49c-16-180.89-403.53-274.25-431.76-282.68S348,1515.11,260.7,1460.65c-214.27-125.78-197.59-483-197.59-483S257.49,923.8,303,744.2c51.84-276-80.19-354.45-152.69-359.2Z"/><path class="cls-2" d="M909.3,193.73l-2.57-.06m0,0c-136.67-3.13-426.66-33.49-513.87-130.91L150.35,385c72.5,4.75,204.53,83.25,152.69,359.2C257.49,923.8,63.11,977.61,63.11,977.61s-16.68,357.26,197.59,483c87.25,54.46,188.61,68.72,216.84,77.16S893.26,1639.6,909.3,1820.49c17.32-180.89,398.4-274.25,426.63-282.68s129.59-22.7,216.84-77.16c214.27-125.78,197.59-483,197.59-483S1556,923.8,1510.43,744.2c-51.84-276,80.19-354.45,152.68-359.2L1420.61,62.76C1333.39,160.18,1043.42,190.54,906.73,193.67Zm0,0-2.56.06"/></g></mask></defs><g id="Layer_1" data-name="Layer 1"><g class="cls-3"><g class="cls-4"><path class="cls-5" d="M757,134.13h296.27V1771.32H757Z"/><path class="cls-6" d="M1052.32,135.11H758V1770.35h294.35Zm-295.31-1V1771.32h296.27V134.13Z"/><path class="cls-7" d="M1053.28,134.13h296.26V1771.32H1053.28Z"/><path class="cls-6" d="M1348.58,135.11H1054.24V1770.35h294.34Zm-295.3-1V1771.32h296.26V134.13Z"/><path class="cls-7" d="M460.75,134.13H757V1771.32H460.75Z"/><path class="cls-6" d="M756.05,135.11H461.71V1770.35H756.05Zm-295.3-1V1771.32H757V134.13Z"/><path class="cls-5" d="M60.6,62.79H460.75V1771.32H60.6Z"/><path class="cls-6" d="M459.79,63.76H61.56V1770.35H459.79Zm-399.19-1V1771.32H460.75V62.79Z"/><path class="cls-5" d="M1349.54,62.78h400.15V1771.32H1349.54Z"/><path class="cls-6" d="M1748.73,63.75H1350.5v1706.6h398.23Zm-399.19-1V1771.32h400.15V62.78Z"/></g></g><path class="cls-8" d="M1437,20.46l293.07,382.2-44.55,2.87c-30.24,1.94-75.54,19.36-107.58,67.69-31.92,48.16-52.7,130.19-27.08,264.69,21.48,82.17,77.63,136.32,130.18,170.43a419.84,419.84,0,0,0,69.58,36.26c9.16,3.73,16.62,6.37,21.7,8,2.54.84,4.49,1.44,5.75,1.82l1.37.4.2.06.07,0h0l16.76,4.55.82,17.26-23.94,1.12c23.94-1.12,23.94-1.11,23.94-1.1v.36c0,.21,0,.51,0,.89,0,.77.07,1.87.11,3.29.07,2.83.14,6.93.16,12.16,0,10.45-.15,25.42-1.09,43.74a877.33,877.33,0,0,1-18.66,141.22c-23.62,107.67-76.27,237.34-194.73,305.74-76.11,46.53-164,65.75-206.68,75.07-9.47,2.07-16.71,3.65-21.11,5-1.9.55-5.1,1.41-9.43,2.58-31.19,8.41-121.09,32.63-210.16,73.32-50.72,23.18-99.79,51.11-136.9,83.49S938.77,1791,935.15,1828l-47.71-.18c-3.33-36.83-26.18-71.64-63.87-104.17-37.53-32.39-87.28-60.33-138.76-83.52-89.7-40.41-180.25-64.56-212.52-73.17-4.78-1.27-8.28-2.21-10.31-2.79-4.39-1.3-11.64-2.88-21.11-5-42.67-9.32-130.57-28.54-206.68-75.07-118.46-68.4-171.1-198.07-194.72-305.74A878.63,878.63,0,0,1,20.8,1037.23c-.94-18.32-1.13-33.29-1.09-43.74,0-5.23.1-9.33.17-12.16,0-1.42.08-2.52.11-3.29,0-.38,0-.68,0-.89v-.36s0,0,23.93,1.1L20,976.77l.82-17.26L37.61,955h0l.28-.08,1.37-.4c1.26-.38,3.21-1,5.75-1.82,5.08-1.68,12.54-4.32,21.7-8a419.41,419.41,0,0,0,69.57-36.26C188.88,874.23,245,820.08,266.51,737.91c25.61-134.5,4.83-216.53-27.09-264.68-32-48.34-77.34-65.76-107.57-67.7l-44.56-2.87L380.36,20.46l19.36,21.22c18.85,20.67,50.5,39.4,92.12,55.62,41.18,16,90,28.84,141,38.8C733.41,155.74,840.1,164,908.67,165.54c68.57-1.57,175.26-9.8,275.79-29.44,51-10,99.86-22.75,141-38.8,41.62-16.22,73.26-34.95,92.11-55.62ZM908.67,213.13l2.14,0v-.09c70.72-1.68,179.64-10.13,282.9-30.3,52.7-10.29,104.53-23.75,149.31-41.2,33.81-13.18,64.88-29.11,89.32-48.63l209.45,273.14c-35.84,11.74-74.64,36.83-103.9,81-41,61.82-61.29,157.84-34,300.46l.15.75.18.73c25.35,98.08,92,161.12,150.57,199.13a468,468,0,0,0,77.62,40.47c6.56,2.67,12.38,4.86,17.3,6.61,0,9.62-.2,23.14-1,39.58a830.62,830.62,0,0,1-17.63,133.52c-22.71,103.55-71.27,216.71-172.24,274.87l-.28.17-.27.16c-67.73,41.5-142.42,58.09-187.45,68.1-12,2.66-21.92,4.86-29,6.95-1.52.44-4.26,1.17-8.08,2.2-29.68,8-124.5,33.41-218,76.12-52.76,24.11-106.48,54.31-148.5,91-22.06,19.25-41.57,40.88-55.85,64.94-14.36-24.12-34.07-45.76-56.37-65-42.47-36.66-96.9-66.84-150.39-90.94-94.17-42.42-189.9-67.83-220.42-75.93-4.14-1.1-7.08-1.88-8.66-2.34-7.09-2.09-17-4.29-29-6.95-45-10-119.71-26.6-187.44-68.1l-.28-.16-.28-.17C157.57,1385,109,1271.88,86.29,1168.33a831.76,831.76,0,0,1-17.63-133.52c-.84-16.44-1-30-1-39.58,4.92-1.75,10.75-3.94,17.3-6.61a467.56,467.56,0,0,0,77.62-40.47c58.58-38,125.22-101,150.57-199.13l.19-.73.14-.75c27.3-142.62,7-238.64-34-300.46-29.27-44.16-68.06-69.25-103.91-81L385,93c24.43,19.52,55.5,35.45,89.31,48.63,44.79,17.45,96.62,30.91,149.31,41.2,103.26,20.17,212.19,28.62,282.9,30.3v.09Z"/><path class="cls-9" d="M698.94,1044.54a103,103,0,0,0,19.66-31.37q7-18.23,12.64-34.27L838.66,645.59,822.51,596h125L1071,978.9Q1076,995,1083,1013.17a103.19,103.19,0,0,0,19.67,31.37h-151q4.21-13.86,2.11-31.37a158.56,158.56,0,0,0-7.73-34.27l-11.93-39.39H805.66L793.72,978.9a159.14,159.14,0,0,0-7.72,34.27q-2.1,17.52,1.41,31.37ZM924.31,907.42l-54.76-176.5-54.06,176.5Z"/><path class="cls-9" d="M1132.54,1388.42a89.8,89.8,0,0,0,12.26-30.31,166,166,0,0,0,3.6-33.14V1018.28a155.92,155.92,0,0,0-3.6-32.43,97.89,97.89,0,0,0-12.26-31h159.32a97.66,97.66,0,0,0-12.26,31,156,156,0,0,0-3.61,32.43v152.29h116.06V1018.28a155.92,155.92,0,0,0-3.6-32.43,97.87,97.87,0,0,0-12.25-31h160a97.42,97.42,0,0,0-12.26,31,155.29,155.29,0,0,0-3.61,32.43V1325a165.33,165.33,0,0,0,3.61,33.14,89.39,89.39,0,0,0,12.26,30.31h-160a89.78,89.78,0,0,0,12.25-30.31,166,166,0,0,0,3.6-33.14V1200.89H1276V1325a166.06,166.06,0,0,0,3.61,33.14,89.6,89.6,0,0,0,12.26,30.31Z"/><path class="cls-9" d="M619,341.53a84.87,84.87,0,0,0-53.3,18.05,156.88,156.88,0,0,0-39.42,45.51,230.94,230.94,0,0,0-24.82,59.23,247.82,247.82,0,0,0-8,60.67,419.58,419.58,0,0,0,7.3,80.17q8,37.56,22.63,65.73,15.33,28.17,37.23,44.79a86.86,86.86,0,0,0,51.11,15.89q32.85,0,65.7-22.39,33.58-22.39,66.44-73.68L725.55,758.29q-31.39,0-62.79.72-31.39,1.46-62.78,1.45-50.38,0-92.72-17.34t-73-48.39q-30.66-31.07-47.45-73.67Q370,577.71,370,525.71A240.89,240.89,0,0,1,383.15,447a198,198,0,0,1,39.42-67.89q26.28-30.34,65.71-48.4,40.15-18.78,93.45-18.78,43.8,0,80.3,1.45,37.23.72,81,.72L729.2,415.2Z"/></g><g id="Layer_2" data-name="Layer 2"><path class="cls-10" d="M1374.28,108.32v1420.2q-12.08,3.17-23.78,6.4c-131.76,36.43-229.12,78.64-298.18,121q-12.49,7.68-23.78,15.37V183.24q11.58-.87,23.78-1.93c93.49-8.19,210.57-25.69,298.18-63v-10Z"/><path class="cls-11" d="M1052.32,181.31V1656q-12.49,7.68-23.78,15.37c-68.23,46.38-103.38,92.18-113.41,130h-19.9c-10-37.84-45.2-83.66-113.48-130.06q-11.29-7.68-23.78-15.36V181.3q12.18,1.06,23.78,1.93c58.5,4.38,104.84,5.13,124,5.22h.09a.89.89,0,0,0,.23,0c19.9-.13,65.4-.94,122.51-5.21Q1040.12,182.37,1052.32,181.31Z"/><path class="cls-11" d="M1772.3,977.57v76.92c-8.72,132.86-58.64,397.27-314.5,453.87q-43.79,9.69-83.52,20.16-12.08,3.17-23.78,6.4V96.32l106-8,223.1,291.08S1449.89,442.24,1524,707.72C1581.86,914.72,1757,972.85,1772.3,977.57Z"/><path class="cls-11" d="M458.16,94.32V1534.46l-22.15-6q-39.72-10.44-83.45-20.14c-294.72-65.2-316.2-406.12-316.2-504.11,0-16.71.63-26.36.63-26.36s188.85-53.64,249.33-270.17C360.47,442.24,130.8,379.4,130.8,379.4L353.9,88.32Z"/><path class="cls-10" d="M781.75,183.23V1671.28q-11.29-7.68-23.78-15.36c-69.35-42.57-167.23-85-299.81-121.46l-22.15-6V108.32h22.15v9.23C545.93,155.38,663.88,173.06,758,181.3Q770.15,182.36,781.75,183.23Z"/><path class="cls-12" d="M912,1823.72a86.67,86.67,0,0,1,3.09-22.38c10-37.83,45.18-83.63,113.41-130q11.3-7.69,23.78-15.37c69.06-42.4,166.42-84.61,298.18-121q11.71-3.23,23.78-6.4,39.75-10.45,83.52-20.16c255.86-56.6,305.78-321,314.5-453.87,3-46.28,1.07-76.6,1.07-76.6s-.37-.1-1.07-.32c-15.3-4.72-190.44-62.85-248.26-269.85-74.15-265.48,155.52-328.32,155.52-328.32L1456.46,88.32l-18.82-24.56A212.06,212.06,0,0,1,1407,88.32a311.35,311.35,0,0,1-34.85,20q-10.49,5.21-21.69,10c-87.61,37.33-204.69,54.83-298.18,63q-12.18,1-23.78,1.93c-57.11,4.27-102.61,5.08-122.51,5.21h-.32c-6.84.05-10.56,0-10.56,0"/><path class="cls-12" d="M898.32,1823.72a86.67,86.67,0,0,0-3.09-22.38c-10-37.84-45.2-83.66-113.48-130.06q-11.29-7.68-23.78-15.36c-69.35-42.57-167.23-85-299.81-121.46q-10.92-3-22.15-6-39.72-10.44-83.45-20.14c-294.72-65.2-316.2-406.12-316.2-504.11,0-16.71.63-26.36.63-26.36s188.85-53.64,249.33-270.17C360.47,442.24,130.8,379.4,130.8,379.4L353.9,88.32l18.82-24.56a212.06,212.06,0,0,0,30.6,24.56,311.35,311.35,0,0,0,34.85,20q9.69,4.8,20,9.23C545.93,155.38,663.88,173.06,758,181.3q12.18,1.06,23.78,1.93c58.5,4.38,104.84,5.13,124,5.22h.09a.89.89,0,0,0,.23,0c6,0,9.19,0,9.19,0"/></g><g id="Layer_3" data-name="Layer 3"><path class="cls-13" d="M984.31,1090.45q5.79-5.13,8.36-14.13,2.55-7.71,2.56-19.91t-5.13-29.55l-19.91-62.94H817.32l-19.27,62.94q-5.79,17.36-5.78,29.55t2.57,19.91q2.55,9,8.35,14.13H692.71a86.34,86.34,0,0,0,18-14.13,181.56,181.56,0,0,0,15.42-19.91,118.38,118.38,0,0,0,14.13-29.55L847.5,696.08q5.14-17.34,5.14-29.23t-2.57-19.59a33.37,33.37,0,0,0-8.35-14.77h54.6A70.91,70.91,0,0,1,938.39,646a68,68,0,0,1,26,36l112.41,344.91q5.13,17.36,13.48,29.55a180.34,180.34,0,0,0,15.42,19.91,68.39,68.39,0,0,0,18,14.13Zm-27-169.57L893.75,716.63,830.81,920.88Z"/><path class="cls-13" d="M627.54,733.54q36.6,0,64.23-9.32t46.88-20.87a179.51,179.51,0,0,0,38.54-30.19l-5.14,88.64q-19.26,5.78-41.75,10.27-19.9,3.85-45.92,7.07a465.82,465.82,0,0,1-56.84,3.21A272.47,272.47,0,0,1,546,769.5a215.6,215.6,0,0,1-74.82-41.1q-33.74-28.26-54.92-73.23T395,546.63q0-60.37,20.56-104.7t53-73.22a218.29,218.29,0,0,1,71.61-43q39.18-14.12,75.79-14.13a406.48,406.48,0,0,1,54.28,3.21q23.44,3.22,39.5,7.07a203.11,203.11,0,0,1,32.12,10.28v89.28a176.12,176.12,0,0,0-31.48-30.19Q695,379.63,673.14,370t-50.74-9.63A132.14,132.14,0,0,0,573.58,370q-24.42,9.64-43.67,31.48T498.43,459q-12.21,35.66-12.2,87.68,0,50.75,12.2,86.06t32.12,57.81q19.91,22.49,45.28,32.76A136.59,136.59,0,0,0,627.54,733.54Z"/><path class="cls-13" d="M1478.27,970.23a69.69,69.69,0,0,0-7.86,17.12q-3.36,10.39-3.37,25.55v289.15q0,15.15,3.37,25.82a68.76,68.76,0,0,0,7.86,17.41,41.38,41.38,0,0,0,11.79,12.35H1368.23a45.18,45.18,0,0,0,11.23-12.35,76.14,76.14,0,0,0,8.14-17.41q3.64-10.65,3.65-25.82V1178.53H1239.66v123.52q0,15.15,3.37,25.82a68.41,68.41,0,0,0,7.86,17.41,41.13,41.13,0,0,0,11.79,12.35H1140.84a45,45,0,0,0,11.23-12.35,76.14,76.14,0,0,0,8.14-17.41q3.64-10.65,3.65-25.82V1012.9q0-15.17-3.65-25.55a77.6,77.6,0,0,0-8.14-17.12,54.48,54.48,0,0,0-11.23-12.91h121.84a48.74,48.74,0,0,0-11.79,12.86,69.25,69.25,0,0,0-7.86,17.09q-3.37,10.35-3.37,25.45v123.14h151.59V1012.72q0-15.11-3.65-25.45a77.53,77.53,0,0,0-8.14-17.09,54.81,54.81,0,0,0-11.23-12.86h121.83A49,49,0,0,0,1478.27,970.23Z"/><path class="cls-13" d="M2271.34,394c-86.18,0-115.14,66.62-115.14,163.66,0,97.76,29,164.38,115.14,164.38,69.51,0,95.58-41.27,104.27-99.21H2506c-11.59,121.66-86.9,205.66-228.83,205.66-163.66,0-251.28-114.41-251.28-270.83,0-155.69,87.62-270.11,251.28-270.11,141.21,0,216.52,84,228.83,204.21H2375.61C2366.2,435.29,2340.13,394,2271.34,394Z"/><path class="cls-13" d="M2660.92,299.15V816.92H2545.06V299.15Z"/><path class="cls-13" d="M3074.41,446.15V816.92H2958.54V763.33h-1.44c-19.56,34-55.76,65.17-121.66,65.17-71.69,0-120.21-47.07-120.21-131.79V446.15h115.86V659.77c0,55.76,19.56,74.59,57.94,74.59,44.17,0,69.51-22.45,69.51-73.86V446.15Z"/><path class="cls-13" d="M3516.86,631.53c0,121.66-63,197-161.49,197-53.58,0-92.69-29-107.17-48.52h-1.45v36.94H3130.89V299.15h115.86V483.08h1.45c14.48-19.55,53.59-48.52,107.17-48.52C3453.86,434.56,3516.86,509.88,3516.86,631.53Zm-115.86,0c0-72.41-29-110.07-76-110.07s-76,37.66-76,110.07,29,110.07,76,110.07S3401,704,3401,631.53Z"/><path class="cls-13" d="M3814.49,709l-33.32,107.9H3650.83l187.55-517.77h130.35l186.83,517.77H4025.21L3991.9,709Zm148.45-99.21-58.66-191.18h-1.45l-58.65,191.18Z"/><path class="cls-13" d="M4306.19,533.05V686.57c0,42,15.21,42,64.45,42v86.9c-21,4.34-39.11,8-71.69,8-84.73,0-108.63-44.89-108.63-128.17V533.05h-51.41v-86.9h51.41V342.6h115.87V446.15h64.45v86.9Z"/><path class="cls-13" d="M4530,299.15V816.92H4414.09V299.15Z"/><path class="cls-13" d="M4831.91,704.67h115.14c-20.27,74.59-78.2,123.83-178.86,123.83-123.11,0-197.69-81.1-197.69-197,0-113,73.13-197,191.17-197,126.73,0,191.18,92.7,191.18,227.39H4686.36c0,52.14,38.38,79.65,79.66,79.65C4805.84,741.6,4824.67,722.78,4831.91,704.67Zm-145.55-113H4837c0-51.42-31.14-77.49-75.31-77.49S4686.36,540.29,4686.36,591.71Zm117.31-194.8h-86.9l31.14-101.38h130.35Z"/><path class="cls-13" d="M5132.44,533.05V686.57c0,42,15.21,42,64.45,42v86.9c-21,4.34-39.1,8-71.69,8-84.73,0-108.62-44.89-108.62-128.17V533.05h-51.42v-86.9h51.42V342.6h115.86V446.15h64.45v86.9Z"/><path class="cls-13" d="M5239.62,350.56c0-33.31,25.34-51.41,57.93-51.41s57.93,18.1,57.93,51.41c0,34-25.35,51.42-57.93,51.42S5239.62,384.6,5239.62,350.56Zm115.86,95.59V816.92H5239.62V446.15Z"/><path class="cls-13" d="M5585.75,521.46c-47.79,0-74.58,40.55-74.58,110.07s26.07,110.07,74.58,110.07c46.35,0,62.28-31.13,65.9-64.45h113.69c-5.79,87.63-72.41,151.35-178.86,151.35-117.31,0-191.18-81.1-191.18-197,0-115.14,73.87-197,188.28-197,107.9,0,172.35,63.73,181.76,149.9H5651.65C5648,554.77,5632.1,521.46,5585.75,521.46Z"/><path class="cls-13" d="M5984.76,828.5c-123.83,0-198.42-81.83-198.42-197s74.59-197,198.42-197c123.1,0,197.69,81.83,197.69,197S6107.86,828.5,5984.76,828.5Zm0-86.9c50.69,0,81.83-38.38,81.83-110.07s-31.14-110.07-81.83-110.07c-51.42,0-82.56,38.38-82.56,110.07S5933.34,741.6,5984.76,741.6Z"/><path class="cls-5" d="M2177.2,910.62v202.76h177.41V910.62H2485v517.77H2354.61V1219.83H2177.2v208.56H2046.85V910.62Z"/><path class="cls-5" d="M2905,1057.62v370.77H2789.1V1374.8h-1.45c-19.55,34-55.76,65.18-121.66,65.18-71.69,0-120.21-47.07-120.21-131.8V1057.62h115.87v213.63c0,55.76,19.55,74.59,57.93,74.59,44.17,0,69.52-22.45,69.52-73.87V1057.62Z"/><path class="cls-5" d="M3201.13,1054v101.39h-1.44c-59.38-10.87-122.39,21.72-122.39,100.65v172.35H2961.44V1057.62H3077.3v60.83h1.45c18.11-41.27,50-67.34,90.52-67.34C3179.41,1051.11,3188.1,1051.11,3201.13,1054Z"/><path class="cls-5" d="M3399.55,1125.7c-42,0-62.28,15.93-65.9,51.41H3225c3.62-71,54.31-131.07,175.24-131.07,104.28,0,162.21,40.55,162.21,157.14v170.18c0,19.55,7.25,27.51,21.73,27.51v27.52C3561,1437.08,3540,1440,3516.86,1440c-52.14,0-66.62-24.62-66.62-50.69h-1.45c-23.89,27.51-67.34,50.69-116.59,50.69-78.2,0-121.65-44.18-121.65-106.45,0-73.87,54.31-107.9,141.21-125.28,47.79-9.42,94.86-16.66,94.86-47.8C3446.62,1138.73,3431.41,1125.7,3399.55,1125.7ZM3446.62,1293v-44.89c-14.48,5.79-32.59,10.86-59.38,16.65-45.62,10.14-60.83,29-60.83,52.14,0,30.42,18.1,43.45,46.35,43.45C3422.72,1360.32,3446.62,1328.46,3446.62,1293Z"/><path class="cls-5" d="M3802.17,1132.94c-47.79,0-74.58,40.55-74.58,110.07s26.07,110.07,74.58,110.07c46.35,0,62.28-31.14,65.9-64.45h113.69C3976,1376.25,3909.35,1440,3802.9,1440c-117.31,0-191.18-81.11-191.18-197,0-115.14,73.87-197,188.28-197,107.9,0,172.35,63.72,181.76,149.9H3868.07C3864.45,1166.25,3848.52,1132.94,3802.17,1132.94Z"/><path class="cls-5" d="M4198.28,1125.7c-42,0-62.28,15.93-65.9,51.41H4023.76c3.62-71,54.31-131.07,175.24-131.07,104.28,0,162.21,40.55,162.21,157.14v170.18c0,19.55,7.24,27.51,21.73,27.51v27.52c-23.18,8.69-44.18,11.59-67.35,11.59-52.14,0-66.62-24.62-66.62-50.69h-1.45c-23.9,27.51-67.35,50.69-116.59,50.69-78.21,0-121.65-44.18-121.65-106.45,0-73.87,54.31-107.9,141.21-125.28,47.79-9.42,94.86-16.66,94.86-47.8C4245.35,1138.73,4230.14,1125.7,4198.28,1125.7ZM4245.35,1293v-44.89c-14.48,5.79-32.59,10.86-59.38,16.65-45.62,10.14-60.83,29-60.83,52.14,0,30.42,18.1,43.45,46.35,43.45C4221.45,1360.32,4245.35,1328.46,4245.35,1293Zm70.24-386L4241,1008.38h-86.89L4185.24,907Z"/><path class="cls-5" d="M4786.29,1177.83v250.56H4670.42V1214.77c0-55.76-19.55-74.59-57.93-74.59-44.17,0-69.52,22.45-69.52,73.86v214.35H4427.11V1057.62H4543v53.59h1.45c19.55-34,55.76-65.17,121.66-65.17C4737.77,1046,4786.29,1093.11,4786.29,1177.83Z"/></g></svg>