<svg width="556" height="146" viewBox="0 0 556 146" fill="none" xmlns="http://www.w3.org/2000/svg">
<mask id="mask0_2_41" style="mask-type:alpha" maskUnits="userSpaceOnUse" x="3" y="3" width="139" height="142">
<path d="M30.4328 3.89288C37.5455 11.7077 61.1953 14.1433 72.342 14.3946C83.4887 14.1433 107.138 11.7077 114.251 3.89288L134.028 29.7424C128.116 30.1238 117.349 36.4207 121.576 58.5566C125.291 72.9637 141.144 77.2806 141.144 77.2806C141.144 77.2806 142.504 105.939 125.029 116.029C117.914 120.398 109.647 121.542 107.345 122.218C105.043 122.894 73.9639 130.384 72.5513 144.895C71.2432 130.384 39.6413 122.894 37.3392 122.218C35.0371 121.542 26.7704 120.398 19.6547 116.029C2.17948 105.939 3.53982 77.2806 3.53982 77.2806C3.53982 77.2806 19.3931 72.9637 23.1079 58.5566C27.3354 36.4207 16.5678 30.1238 10.6555 29.7424L30.4328 3.89288Z" fill="#C4C4C4"/>
<path d="M72.5513 14.3991C72.482 14.3977 72.4122 14.3962 72.342 14.3946M72.342 14.3946C61.1953 14.1433 37.5455 11.7077 30.4328 3.89288L10.6555 29.7424C16.5678 30.1238 27.3354 36.4207 23.1079 58.5566C19.3931 72.9637 3.53982 77.2806 3.53982 77.2806C3.53982 77.2806 2.17948 105.939 19.6547 116.029C26.7704 120.398 35.0371 121.542 37.3392 122.218C39.6413 122.894 71.2432 130.384 72.5513 144.895C73.9639 130.384 105.043 122.894 107.345 122.218C109.647 121.542 117.914 120.398 125.029 116.029C142.504 105.939 141.144 77.2806 141.144 77.2806C141.144 77.2806 125.291 72.9637 121.576 58.5566C117.349 36.4207 128.116 30.1238 134.028 29.7424L114.251 3.89288C107.138 11.7077 83.4887 14.1433 72.342 14.3946ZM72.342 14.3946C72.2717 14.3962 72.202 14.3977 72.1327 14.3991" stroke="black"/>
</mask>
<g mask="url(#mask0_2_41)">
<path d="M60.1315 9.61845H84.2933V140.95H60.1315V9.61845Z" fill="#F40909"/>
<path fill-rule="evenodd" clip-rule="evenodd" d="M84.215 9.69635H60.2098V140.872H84.215V9.69635ZM60.1315 9.61845V140.95H84.2933V9.61845H60.1315Z" fill="black"/>
<path d="M84.2933 9.61845H108.455V140.95H84.2933V9.61845Z" fill="#0C0C0C"/>
<path fill-rule="evenodd" clip-rule="evenodd" d="M108.377 9.69635H84.3716V140.872H108.377V9.69635ZM84.2933 9.61845V140.95H108.455V9.61845H84.2933Z" fill="black"/>
<path d="M35.9698 9.61845H60.1316V140.95H35.9698V9.61845Z" fill="#0C0C0C"/>
<path fill-rule="evenodd" clip-rule="evenodd" d="M60.0533 9.69635H36.0481V140.872H60.0533V9.69635ZM35.9698 9.61845V140.95H60.1316V9.61845H35.9698Z" fill="black"/>
<path d="M3.33569 3.89506H35.9698V140.95H3.33569V3.89506Z" fill="#F40909"/>
<path fill-rule="evenodd" clip-rule="evenodd" d="M35.8915 3.97296H3.41399V140.872H35.8915V3.97296ZM3.33569 3.89506V140.95H35.9698V3.89506H3.33569Z" fill="black"/>
<path d="M108.455 3.89478H141.089V140.95H108.455V3.89478Z" fill="#F40909"/>
<path fill-rule="evenodd" clip-rule="evenodd" d="M141.011 3.97269H108.533V140.872H141.011V3.97269ZM108.455 3.89478V140.95H141.089V3.89478H108.455Z" fill="black"/>
</g>
<path fill-rule="evenodd" clip-rule="evenodd" d="M115.586 0.5L139.488 31.1589L135.854 31.389C133.388 31.5451 129.694 32.942 127.081 36.8197C124.478 40.6823 122.783 47.2627 124.872 58.0525C126.624 64.6435 131.203 68.9871 135.489 71.7235C137.632 73.0913 139.667 74.0338 141.163 74.6328C141.91 74.9316 142.518 75.1432 142.933 75.2782C143.14 75.3456 143.299 75.3939 143.402 75.4242C143.453 75.4394 143.491 75.4501 143.513 75.4564L143.53 75.4611L143.536 75.4628L143.538 75.4632L143.539 75.4634L143.539 75.4636L144.906 75.8287L144.973 77.2132L143.021 77.3032C144.973 77.2132 144.973 77.2139 144.973 77.2147L144.973 77.2168L144.973 77.2231L144.974 77.2435C144.975 77.2606 144.976 77.2845 144.977 77.3152C144.979 77.3766 144.982 77.4648 144.985 77.5785C144.992 77.8059 144.998 78.1351 145 78.5544C145.003 79.393 144.987 80.5937 144.91 82.063C144.757 84.9972 144.362 89.0257 143.388 93.3914C141.462 102.029 137.168 112.43 127.507 117.917C121.3 121.65 114.131 123.191 110.651 123.939C109.879 124.105 109.288 124.232 108.93 124.336C108.775 124.38 108.514 124.45 108.16 124.543C105.617 125.217 98.2851 127.161 91.021 130.425C86.8844 132.284 82.8827 134.525 79.856 137.123C76.817 139.731 74.9543 142.529 74.6596 145.5L70.7681 145.486C70.4967 142.531 68.6333 139.74 65.5592 137.129C62.4988 134.531 58.4412 132.29 54.2433 130.43C46.9275 127.188 39.5422 125.251 36.9104 124.56C36.5208 124.458 36.2354 124.383 36.0698 124.336C35.7117 124.232 35.1211 124.105 34.3487 123.939C30.8688 123.191 23.6997 121.65 17.493 117.917C7.83159 112.43 3.53838 102.029 1.61186 93.3914C0.638113 89.0257 0.2428 84.9972 0.0898386 82.063C0.0132406 80.5937 -0.00287064 79.393 0.000389881 78.5544C0.0020207 78.1351 0.00849949 77.8059 0.014714 77.5785C0.0178216 77.4648 0.0208642 77.3766 0.0232039 77.3152C0.0243738 77.2845 0.0253682 77.2606 0.0261074 77.2435L0.0270148 77.2231L0.0274083 77.2147C0.0274466 77.2139 0.0274796 77.2132 1.97948 77.3032L0.0274798 77.2132L0.094445 75.8287L1.46072 75.4636L1.46144 75.4634L1.46234 75.4632L1.46361 75.4628C1.46747 75.4618 1.47516 75.4596 1.48654 75.4564C1.50929 75.4501 1.54683 75.4394 1.59831 75.4242C1.70129 75.3939 1.85986 75.3456 2.06712 75.2782C2.48189 75.1432 3.09007 74.9316 3.83672 74.6328C5.33324 74.0338 7.368 73.0913 9.51067 71.7235C13.7972 68.9871 18.3765 64.6435 20.1281 58.0525C22.2168 47.2627 20.5224 40.6823 17.9195 36.8197C15.3064 32.942 11.6117 31.5451 9.14641 31.389L5.51188 31.1589L29.4139 0.5L30.9927 2.20236C32.5301 3.86013 35.1107 5.3625 38.5049 6.66362C41.864 7.95127 45.8455 8.97688 50.0077 9.7764C58.2066 11.3514 66.908 12.012 72.5 12.1382C78.092 12.012 86.7934 11.3514 94.9923 9.7764C99.1545 8.97688 103.136 7.95127 106.495 6.66362C109.889 5.3625 112.47 3.86013 114.007 2.20236L115.586 0.5ZM72.5 15.9553C72.5585 15.9566 72.6167 15.9578 72.6745 15.9589L72.6746 15.9514C78.4416 15.8166 87.3252 15.1385 95.7468 13.5208C100.044 12.6954 104.271 11.6159 107.923 10.2158C110.681 9.15887 113.215 7.88037 115.207 6.31467L132.289 28.2256C129.366 29.1674 126.203 31.1797 123.816 34.7221C120.473 39.6818 118.817 47.3843 121.044 58.8251L121.055 58.8845L121.071 58.943C123.138 66.8116 128.573 71.8678 133.351 74.9176C135.746 76.4468 138.012 77.4957 139.681 78.1638C140.215 78.3777 140.691 78.5533 141.092 78.6938C141.093 79.4655 141.076 80.55 141.007 81.869C140.862 84.6571 140.486 88.4697 139.569 92.5794C137.717 100.886 133.756 109.964 125.522 114.63L125.499 114.642L125.477 114.656C119.953 117.984 113.862 119.316 110.19 120.118C109.21 120.332 108.402 120.509 107.824 120.676C107.7 120.711 107.476 120.77 107.165 120.852C104.745 121.491 97.0108 123.532 89.3868 126.959C85.0836 128.893 80.7027 131.315 77.2756 134.257C75.4762 135.801 73.8859 137.536 72.721 139.465C71.5495 137.531 69.9424 135.794 68.1237 134.25C64.6599 131.309 60.2208 128.888 55.8584 126.955C48.1782 123.552 40.3715 121.513 37.8822 120.863C37.5445 120.775 37.3047 120.713 37.1763 120.676C36.5978 120.509 35.7902 120.332 34.8103 120.118C31.1383 119.316 25.0468 117.984 19.5231 114.656L19.5006 114.642L19.4777 114.63C11.2436 109.964 7.28342 100.886 5.4307 92.5794C4.51407 88.4697 4.13849 84.6571 3.99314 81.869C3.92438 80.55 3.90741 79.4655 3.9084 78.6938C4.30937 78.5533 4.78458 78.3777 5.31911 78.1638C6.98831 77.4957 9.25383 76.4468 11.6494 74.9176C16.4269 71.8678 21.8618 66.8116 23.9292 58.943L23.9445 58.8845L23.9561 58.8251C26.1825 47.3843 24.5267 39.6818 21.1845 34.7221C18.7973 31.1797 15.634 29.1674 12.7106 28.2256L29.7926 6.31467C31.7853 7.88037 34.3194 9.15887 37.0766 10.2158C40.7289 11.6159 44.9565 12.6954 49.2532 13.5208C57.6748 15.1385 66.5584 15.8166 72.3254 15.9514L72.3255 15.9589C72.3833 15.9578 72.4415 15.9566 72.5 15.9553Z" fill="#0C0C0C"/>
<path d="M55.3956 82.6494C56.0827 81.9083 56.6171 81.0697 56.9988 80.1336C57.3805 79.1585 57.7241 78.2419 58.0295 77.3838L66.7899 50.6463L65.473 46.6678H75.6648L85.7422 77.3838C86.0094 78.2419 86.3338 79.1585 86.7155 80.1336C87.0973 81.0697 87.6317 81.9083 88.3188 82.6494H76.0084C76.2374 81.9083 76.2947 81.0697 76.1801 80.1336C76.0656 79.1585 75.8557 78.2419 75.5503 77.3838L74.5769 74.2244H64.0988L63.1254 77.3838C62.82 78.2419 62.6101 79.1585 62.4956 80.1336C62.381 81.0697 62.4192 81.9083 62.6101 82.6494H55.3956ZM73.7753 71.6501L69.3092 57.4915L64.9004 71.6501H73.7753Z" fill="white"/>
<path d="M90.7575 110.235C91.2278 109.519 91.561 108.708 91.7569 107.803C91.9529 106.861 92.0509 105.975 92.0509 105.145V80.5432C92.0509 79.7137 91.9529 78.8465 91.7569 77.9416C91.561 77.0367 91.2278 76.2072 90.7575 75.4531H103.75C103.28 76.2072 102.947 77.0367 102.751 77.9416C102.555 78.8465 102.457 79.7137 102.457 80.5432V92.7594H111.922V80.5432C111.922 79.7137 111.824 78.8465 111.628 77.9416C111.432 77.0367 111.099 76.2072 110.629 75.4531H123.681C123.21 76.2072 122.877 77.0367 122.681 77.9416C122.485 78.8465 122.387 79.7137 122.387 80.5432V105.145C122.387 105.975 122.485 106.861 122.681 107.803C122.877 108.708 123.21 109.519 123.681 110.235H110.629C111.099 109.519 111.432 108.708 111.628 107.803C111.824 106.861 111.922 105.975 111.922 105.145V95.1913H102.457V105.145C102.457 105.975 102.555 106.861 102.751 107.803C102.947 108.708 103.28 109.519 103.75 110.235H90.7575Z" fill="white"/>
<path d="M48.8724 26.2551C47.245 26.2551 45.7962 26.7379 44.526 27.7036C43.2558 28.6693 42.1841 29.886 41.3108 31.3539C40.4376 32.7831 39.7628 34.3668 39.2865 36.1051C38.8499 37.8047 38.6315 39.4271 38.6315 40.9722C38.6315 43.2512 38.83 45.395 39.2269 47.4037C39.6636 49.4123 40.2788 51.1699 41.0727 52.6763C41.9062 54.1828 42.9184 55.3803 44.1092 56.2687C45.3397 57.1185 46.729 57.5434 48.277 57.5434C50.0632 57.5434 51.8494 56.9447 53.6356 55.7472C55.4615 54.5498 57.2675 52.5798 59.0537 49.8372L57.5652 59.6872C55.8584 59.6872 54.1516 59.7065 52.4448 59.7452C50.738 59.8224 49.0312 59.8611 47.3244 59.8611C44.5855 59.8611 42.065 59.3975 39.7628 58.4705C37.4606 57.5434 35.4759 56.2494 33.8088 54.5884C32.1417 52.9274 30.8517 50.9574 29.9387 48.6784C29.0258 46.3607 28.5693 43.8113 28.5693 41.0301C28.5693 38.867 28.9265 36.7618 29.641 34.7145C30.3555 32.6672 31.4272 30.8517 32.8562 29.268C34.2851 27.6456 36.0713 26.3516 38.2148 25.3859C40.3979 24.3816 42.9383 23.8795 45.8359 23.8795C48.2175 23.8795 50.4006 23.9181 52.3853 23.9953C54.4096 24.034 56.6126 24.0533 58.9942 24.0533L57.8629 32.1651L48.8724 26.2551Z" fill="white"/>
<path d="M203.76 32.8111H194.882C194.764 31.8996 194.521 31.0769 194.154 30.343C193.787 29.6091 193.302 28.9818 192.698 28.4609C192.094 27.9401 191.378 27.5436 190.55 27.2713C189.733 26.9872 188.827 26.8452 187.833 26.8452C186.069 26.8452 184.548 27.2772 183.27 28.1413C182.003 29.0054 181.027 30.2543 180.34 31.8878C179.665 33.5213 179.328 35.4981 179.328 37.8182C179.328 40.233 179.671 42.2571 180.358 43.8906C181.056 45.5123 182.033 46.7375 183.288 47.5661C184.554 48.3828 186.052 48.7912 187.78 48.7912C188.75 48.7912 189.632 48.6669 190.425 48.4183C191.23 48.1697 191.935 47.8087 192.538 47.3352C193.154 46.8499 193.657 46.264 194.048 45.5774C194.45 44.879 194.728 44.0919 194.882 43.2159L203.76 43.2692C203.606 44.879 203.138 46.4652 202.357 48.0277C201.588 49.5902 200.528 51.0166 199.179 52.3068C197.83 53.5852 196.184 54.6032 194.243 55.3608C192.313 56.1184 190.1 56.4972 187.602 56.4972C184.312 56.4972 181.364 55.7751 178.76 54.331C176.168 52.875 174.12 50.7562 172.616 47.9744C171.113 45.1927 170.362 41.8073 170.362 37.8182C170.362 33.8172 171.125 30.4259 172.652 27.6442C174.179 24.8625 176.245 22.7495 178.849 21.3054C181.453 19.8613 184.371 19.1392 187.602 19.1392C189.804 19.1392 191.84 19.447 193.71 20.0625C195.58 20.6662 197.226 21.554 198.646 22.7259C200.067 23.8859 201.221 25.3123 202.109 27.005C202.996 28.6977 203.547 30.633 203.76 32.8111ZM207.789 56V19.6364H216.578V48.8622H231.706V56H207.789ZM257.255 19.6364H266.027V43.0916C266.027 45.8023 265.382 48.1638 264.091 50.1761C262.801 52.1766 261.002 53.7273 258.694 54.8281C256.385 55.9171 253.704 56.4616 250.65 56.4616C247.561 56.4616 244.862 55.9171 242.554 54.8281C240.245 53.7273 238.452 52.1766 237.174 50.1761C235.895 48.1638 235.256 45.8023 235.256 43.0916V19.6364H244.045V42.3281C244.045 43.5829 244.317 44.7015 244.862 45.6839C245.418 46.6664 246.194 47.4358 247.188 47.9922C248.182 48.5485 249.336 48.8267 250.65 48.8267C251.964 48.8267 253.112 48.5485 254.095 47.9922C255.089 47.4358 255.864 46.6664 256.421 45.6839C256.977 44.7015 257.255 43.5829 257.255 42.3281V19.6364ZM270.535 56V19.6364H285.699C288.421 19.6364 290.7 20.0211 292.535 20.7905C294.381 21.5599 295.766 22.6371 296.689 24.022C297.625 25.407 298.092 27.0109 298.092 28.8338C298.092 30.2188 297.802 31.4557 297.222 32.5447C296.642 33.6219 295.843 34.5156 294.825 35.2259C293.807 35.9361 292.629 36.4332 291.292 36.7173V37.0724C292.76 37.1435 294.115 37.54 295.358 38.2621C296.613 38.9841 297.619 39.9903 298.376 41.2805C299.134 42.5589 299.513 44.0741 299.513 45.826C299.513 47.7791 299.015 49.5251 298.021 51.0639C297.027 52.5909 295.589 53.7983 293.706 54.6861C291.824 55.562 289.54 56 286.853 56H270.535ZM279.324 48.9155H284.758C286.663 48.9155 288.066 48.5545 288.966 47.8324C289.877 47.1103 290.333 46.1042 290.333 44.8139C290.333 43.8788 290.114 43.0739 289.676 42.3991C289.238 41.7126 288.617 41.1858 287.812 40.8189C287.007 40.4401 286.042 40.2507 284.917 40.2507H279.324V48.9155ZM279.324 34.5866H284.189C285.148 34.5866 286.001 34.4268 286.746 34.1072C287.492 33.7876 288.072 33.326 288.486 32.7223C288.912 32.1186 289.126 31.3906 289.126 30.5384C289.126 29.3191 288.693 28.3603 287.829 27.6619C286.965 26.9635 285.799 26.6143 284.331 26.6143H279.324V34.5866ZM320.346 56H310.9L323.17 19.6364H334.871L347.14 56H337.694L329.153 28.7983H328.869L320.346 56ZM319.086 41.6889H338.83V48.3651H319.086V41.6889ZM344.324 26.7741V19.6364H375.059V26.7741H364.033V56H355.368V26.7741H344.324ZM378.352 56V19.6364H387.141V48.8622H402.269V56H378.352ZM405.819 56V19.6364H431.174V26.7741H414.608V34.2315H429.877V41.3871H414.608V48.8622H431.174V56H405.819ZM415.584 16.174L419.171 8.16619H426.859L421.497 16.174H415.584ZM434.488 26.7741V19.6364H465.223V26.7741H454.197V56H445.532V26.7741H434.488ZM477.305 19.6364V56H468.516V19.6364H477.305ZM514.83 32.8111H505.952C505.834 31.8996 505.591 31.0769 505.224 30.343C504.857 29.6091 504.372 28.9818 503.768 28.4609C503.165 27.9401 502.449 27.5436 501.62 27.2713C500.803 26.9872 499.898 26.8452 498.903 26.8452C497.14 26.8452 495.619 27.2772 494.34 28.1413C493.074 29.0054 492.097 30.2543 491.411 31.8878C490.736 33.5213 490.398 35.4981 490.398 37.8182C490.398 40.233 490.742 42.2571 491.428 43.8906C492.127 45.5123 493.103 46.7375 494.358 47.5661C495.625 48.3828 497.122 48.7912 498.85 48.7912C499.821 48.7912 500.703 48.6669 501.496 48.4183C502.301 48.1697 503.005 47.8087 503.609 47.3352C504.224 46.8499 504.727 46.264 505.118 45.5774C505.52 44.879 505.799 44.0919 505.952 43.2159L514.83 43.2692C514.676 44.879 514.209 46.4652 513.428 48.0277C512.658 49.5902 511.599 51.0166 510.249 52.3068C508.9 53.5852 507.254 54.6032 505.313 55.3608C503.384 56.1184 501.17 56.4972 498.673 56.4972C495.382 56.4972 492.434 55.7751 489.83 54.331C487.238 52.875 485.19 50.7562 483.687 47.9744C482.183 45.1927 481.432 41.8073 481.432 37.8182C481.432 33.8172 482.195 30.4259 483.722 27.6442C485.249 24.8625 487.315 22.7495 489.919 21.3054C492.523 19.8613 495.441 19.1392 498.673 19.1392C500.874 19.1392 502.91 19.447 504.781 20.0625C506.651 20.6662 508.296 21.554 509.717 22.7259C511.137 23.8859 512.291 25.3123 513.179 27.005C514.067 28.6977 514.617 30.633 514.83 32.8111ZM553.181 37.8182C553.181 41.8191 552.412 45.2105 550.873 47.9922C549.334 50.7739 547.251 52.8868 544.623 54.331C542.007 55.7751 539.071 56.4972 535.816 56.4972C532.549 56.4972 529.608 55.7692 526.992 54.3132C524.376 52.8572 522.298 50.7443 520.759 47.9744C519.232 45.1927 518.469 41.8073 518.469 37.8182C518.469 33.8172 519.232 30.4259 520.759 27.6442C522.298 24.8625 524.376 22.7495 526.992 21.3054C529.608 19.8613 532.549 19.1392 535.816 19.1392C539.071 19.1392 542.007 19.8613 544.623 21.3054C547.251 22.7495 549.334 24.8625 550.873 27.6442C552.412 30.4259 553.181 33.8172 553.181 37.8182ZM544.197 37.8182C544.197 35.4508 543.86 33.4503 543.185 31.8168C542.522 30.1832 541.563 28.9463 540.308 28.1058C539.066 27.2654 537.568 26.8452 535.816 26.8452C534.076 26.8452 532.579 27.2654 531.324 28.1058C530.069 28.9463 529.105 30.1832 528.43 31.8168C527.767 33.4503 527.436 35.4508 527.436 37.8182C527.436 40.1856 527.767 42.1861 528.43 43.8196C529.105 45.4531 530.069 46.6901 531.324 47.5305C532.579 48.371 534.076 48.7912 535.816 48.7912C537.568 48.7912 539.066 48.371 540.308 47.5305C541.563 46.6901 542.522 45.4531 543.185 43.8196C543.86 42.1861 544.197 40.1856 544.197 37.8182Z" fill="white"/>
<path d="M170.752 108V71.6364H179.541V86.2315H193.87V71.6364H202.641V108H193.87V93.3871H179.541V108H170.752ZM229.154 71.6364H237.925V95.0916C237.925 97.8023 237.28 100.164 235.99 102.176C234.699 104.177 232.9 105.727 230.592 106.828C228.284 107.917 225.603 108.462 222.549 108.462C219.459 108.462 216.76 107.917 214.452 106.828C212.144 105.727 210.35 104.177 209.072 102.176C207.794 100.164 207.154 97.8023 207.154 95.0916V71.6364H215.944V94.3281C215.944 95.5829 216.216 96.7015 216.76 97.6839C217.317 98.6664 218.092 99.4358 219.086 99.9922C220.081 100.549 221.235 100.827 222.549 100.827C223.863 100.827 225.011 100.549 225.993 99.9922C226.988 99.4358 227.763 98.6664 228.319 97.6839C228.876 96.7015 229.154 95.5829 229.154 94.3281V71.6364ZM242.434 108V71.6364H257.455C260.178 71.6364 262.527 72.1276 264.504 73.1101C266.493 74.0807 268.026 75.4775 269.103 77.3004C270.18 79.1115 270.719 81.2599 270.719 83.7457C270.719 86.267 270.168 88.4096 269.067 90.1733C267.966 91.9252 266.404 93.2628 264.38 94.1861C262.356 95.0975 259.959 95.5533 257.189 95.5533H247.689V88.6286H255.555C256.881 88.6286 257.988 88.4569 258.876 88.1136C259.775 87.7585 260.456 87.2259 260.917 86.5156C261.379 85.7936 261.61 84.8703 261.61 83.7457C261.61 82.6212 261.379 81.692 260.917 80.9581C260.456 80.2124 259.775 79.656 258.876 79.2891C257.976 78.9103 256.869 78.7209 255.555 78.7209H251.223V108H242.434ZM262.906 91.3807L271.961 108H262.373L253.496 91.3807H262.906ZM282.405 108H272.959L285.228 71.6364H296.929L309.198 108H299.752L291.212 80.7983H290.928L282.405 108ZM281.144 93.6889H300.889V100.365H281.144V93.6889ZM343.412 84.8111H334.534C334.416 83.8996 334.173 83.0769 333.806 82.343C333.44 81.6091 332.954 80.9818 332.35 80.4609C331.747 79.9401 331.031 79.5436 330.202 79.2713C329.385 78.9872 328.48 78.8452 327.485 78.8452C325.722 78.8452 324.201 79.2772 322.922 80.1413C321.656 81.0054 320.679 82.2543 319.993 83.8878C319.318 85.5213 318.98 87.4981 318.98 89.8182C318.98 92.233 319.324 94.2571 320.01 95.8906C320.709 97.5123 321.685 98.7375 322.94 99.5661C324.207 100.383 325.704 100.791 327.432 100.791C328.403 100.791 329.285 100.667 330.078 100.418C330.883 100.17 331.587 99.8087 332.191 99.3352C332.806 98.8499 333.309 98.264 333.7 97.5774C334.102 96.879 334.381 96.0919 334.534 95.2159L343.412 95.2692C343.258 96.879 342.791 98.4652 342.01 100.028C341.24 101.59 340.181 103.017 338.831 104.307C337.482 105.585 335.837 106.603 333.895 107.361C331.966 108.118 329.752 108.497 327.255 108.497C323.964 108.497 321.016 107.775 318.412 106.331C315.82 104.875 313.772 102.756 312.269 99.9744C310.766 97.1927 310.014 93.8073 310.014 89.8182C310.014 85.8172 310.777 82.4259 312.304 79.6442C313.831 76.8625 315.897 74.7495 318.501 73.3054C321.105 71.8613 324.023 71.1392 327.255 71.1392C329.456 71.1392 331.492 71.447 333.363 72.0625C335.233 72.6662 336.878 73.554 338.299 74.7259C339.719 75.8859 340.873 77.3123 341.761 79.005C342.649 80.6977 343.199 82.633 343.412 84.8111ZM354.38 108H344.934L357.203 71.6364H368.904L381.173 108H371.727L363.186 80.7983H362.902L354.38 108ZM353.119 93.6889H372.863V100.365H353.119V93.6889ZM360.061 68.174L363.648 60.1662H371.336L365.974 68.174H360.061ZM415.036 71.6364V108H407.579L393.108 87.0128H392.877V108H384.088V71.6364H391.652L405.963 92.5881H406.265V71.6364H415.036Z" fill="#F40909"/>
</svg>
