<svg width="1817" height="1848" viewBox="0 0 1817 1848" fill="none" xmlns="http://www.w3.org/2000/svg">
<mask id="mask0_3_7" style="mask-type:alpha" maskUnits="userSpaceOnUse" x="43" y="43" width="1727" height="1798">
<path d="M381.627 44C470.739 143.541 767.039 174.564 906.692 177.766C1046.35 174.564 1342.64 143.541 1431.76 44L1679.54 373.258C1605.47 378.116 1470.56 458.322 1523.53 740.278C1570.07 923.788 1768.69 978.774 1768.69 978.774C1768.69 978.774 1785.73 1343.81 1566.79 1472.33C1477.64 1527.98 1374.07 1542.55 1345.23 1551.17C1316.39 1559.78 927.013 1655.18 909.314 1840.01C892.926 1655.18 496.997 1559.78 468.154 1551.17C439.312 1542.55 335.741 1527.98 246.591 1472.33C27.6502 1343.81 44.6934 978.774 44.6934 978.774C44.6934 978.774 243.314 923.788 289.855 740.278C342.821 458.322 207.916 378.116 133.843 373.258L381.627 44Z" fill="#C4C4C4"/>
<path d="M909.314 177.823C908.446 177.805 907.572 177.786 906.692 177.766M906.692 177.766C767.039 174.564 470.739 143.541 381.627 44L133.843 373.258C207.916 378.116 342.821 458.322 289.855 740.278C243.314 923.788 44.6934 978.774 44.6934 978.774C44.6934 978.774 27.6502 1343.81 246.591 1472.33C335.741 1527.98 439.312 1542.55 468.154 1551.17C496.997 1559.78 892.926 1655.18 909.314 1840.01C927.013 1655.18 1316.39 1559.78 1345.23 1551.17C1374.07 1542.55 1477.64 1527.98 1566.79 1472.33C1785.73 1343.81 1768.69 978.774 1768.69 978.774C1768.69 978.774 1570.07 923.788 1523.53 740.278C1470.56 458.322 1605.47 378.116 1679.54 373.258L1431.76 44C1342.64 143.541 1046.35 174.564 906.692 177.766ZM906.692 177.766C905.812 177.786 904.938 177.805 904.07 177.823" stroke="black"/>
</mask>
<g mask="url(#mask0_3_7)">
<path d="M753.712 116.929H1056.43V1789.76H753.712V116.929Z" fill="#F40909"/>
<path fill-rule="evenodd" clip-rule="evenodd" d="M1055.45 117.922H754.693V1788.77H1055.45V117.922ZM753.712 116.929V1789.76H1056.43V116.929H753.712Z" fill="black"/>
<path d="M1056.43 116.929H1359.14V1789.76H1056.43V116.929Z" fill="#0C0C0C"/>
<path fill-rule="evenodd" clip-rule="evenodd" d="M1358.16 117.922H1057.41V1788.77H1358.16V117.922ZM1056.43 116.929V1789.76H1359.14V116.929H1056.43Z" fill="black"/>
<path d="M450.997 116.929H753.712V1789.76H450.997V116.929Z" fill="#0C0C0C"/>
<path fill-rule="evenodd" clip-rule="evenodd" d="M752.731 117.922H451.978V1788.77H752.731V117.922ZM450.997 116.929V1789.76H753.712V116.929H450.997Z" fill="black"/>
<path d="M42.1356 44.0275H450.997V1789.76H42.1356V44.0275Z" fill="#F40909"/>
<path fill-rule="evenodd" clip-rule="evenodd" d="M450.016 45.0198H43.1166V1788.77H450.016V45.0198ZM42.1356 44.0275V1789.76H450.997V44.0275H42.1356Z" fill="black"/>
<path d="M1359.14 44.0243H1768V1789.76H1359.14V44.0243Z" fill="#F40909"/>
<path fill-rule="evenodd" clip-rule="evenodd" d="M1767.02 45.0166H1360.12V1788.77H1767.02V45.0166ZM1359.14 44.0243V1789.76H1768V44.0243H1359.14Z" fill="black"/>
</g>
<path fill-rule="evenodd" clip-rule="evenodd" d="M1448.48 0.783295L1747.94 391.3L1702.41 394.231C1671.52 396.219 1625.23 414.012 1592.49 463.404C1559.88 512.604 1538.65 596.422 1564.82 733.857C1586.77 817.81 1644.14 873.136 1697.84 907.991C1724.69 925.413 1750.18 937.418 1768.93 945.048C1778.29 948.854 1785.91 951.549 1791.1 953.268C1793.7 954.128 1795.69 954.742 1796.98 955.128C1797.62 955.322 1798.09 955.458 1798.38 955.539L1798.58 955.598L1798.66 955.62L1798.68 955.625L1798.69 955.628L1798.7 955.63L1815.82 960.281L1816.66 977.915L1792.2 979.062C1816.66 977.915 1816.66 977.924 1816.66 977.934L1816.66 977.962L1816.66 978.042L1816.67 978.302C1816.68 978.519 1816.69 978.824 1816.71 979.215C1816.74 979.997 1816.78 981.121 1816.82 982.569C1816.89 985.464 1816.97 989.658 1816.99 995C1817.04 1005.68 1816.83 1020.97 1815.87 1039.69C1813.96 1077.06 1809.01 1128.38 1796.81 1183.99C1772.67 1294 1718.88 1426.49 1597.84 1496.38C1520.07 1543.93 1430.26 1563.56 1386.66 1573.09C1376.98 1575.2 1369.58 1576.82 1365.09 1578.14C1363.15 1578.71 1359.88 1579.59 1355.45 1580.78C1323.58 1589.37 1231.72 1614.12 1140.71 1655.7C1088.89 1679.38 1038.75 1707.92 1000.83 1741.01C962.759 1774.23 939.421 1809.87 935.729 1847.72L886.974 1847.54C883.573 1809.9 860.228 1774.34 821.713 1741.1C783.371 1708 732.534 1679.45 679.94 1655.76C588.283 1614.47 495.756 1589.79 462.783 1581C457.901 1579.7 454.325 1578.74 452.25 1578.14C447.764 1576.82 440.364 1575.2 430.687 1573.09C387.088 1563.56 297.269 1543.93 219.508 1496.38C98.4636 1426.49 44.6754 1294 20.5387 1183.99C8.33893 1128.38 3.38619 1077.06 1.4698 1039.69C0.510125 1020.97 0.308273 1005.68 0.349123 995C0.369555 989.658 0.450725 985.464 0.528585 982.569C0.567519 981.121 0.605639 979.997 0.634952 979.215C0.649609 978.824 0.662068 978.519 0.671329 978.302L0.682698 978.042L0.687628 977.934C0.688107 977.924 0.68852 977.915 25.1445 979.062L0.688523 977.915L1.52751 960.281L18.6451 955.63L18.6541 955.628L18.6654 955.625L18.6813 955.62C18.7297 955.607 18.8261 955.58 18.9685 955.539C19.2536 955.458 19.724 955.322 20.3689 955.128C21.6591 954.742 23.6458 954.128 26.2425 953.268C31.4391 951.549 39.0587 948.854 48.4132 945.048C67.1626 937.418 92.6554 925.413 119.5 907.991C173.205 873.136 230.577 817.81 252.523 733.856C278.692 596.421 257.462 512.604 224.851 463.405C192.112 414.012 145.823 396.219 114.937 394.231L69.4008 391.3L368.861 0.783298L388.641 22.4671C407.903 43.5829 440.234 62.7192 482.759 79.2922C524.844 95.6936 574.727 108.757 626.873 118.941C729.594 139.002 838.612 147.417 908.672 149.024C978.732 147.417 1087.75 139.002 1190.47 118.941C1242.62 108.757 1292.5 95.6936 1334.59 79.2922C1377.11 62.7192 1409.44 43.5829 1428.7 22.4671L1448.48 0.783295ZM908.672 197.645C909.405 197.661 910.134 197.676 910.858 197.691L910.86 197.594C983.112 195.878 1094.41 187.241 1199.92 166.635C1253.76 156.122 1306.72 142.371 1352.48 124.538C1387.02 111.075 1418.77 94.7905 1443.74 74.8474L1657.75 353.938C1621.13 365.934 1581.49 391.565 1551.59 436.686C1509.71 499.861 1488.97 597.97 1516.86 743.697L1517.01 744.454L1517.2 745.2C1543.1 845.425 1611.19 909.828 1671.05 948.675C1701.06 968.154 1729.45 981.514 1750.36 990.023C1757.06 992.748 1763.01 994.985 1768.03 996.774C1768.05 1006.6 1767.83 1020.42 1766.97 1037.22C1765.15 1072.73 1760.44 1121.29 1748.96 1173.64C1725.75 1279.45 1676.13 1395.07 1572.97 1454.5L1572.68 1454.67L1572.4 1454.84C1503.2 1497.24 1426.88 1514.19 1380.87 1524.42C1368.6 1527.14 1358.48 1529.39 1351.23 1531.52C1349.68 1531.97 1346.88 1532.72 1342.98 1533.77C1312.65 1541.91 1215.76 1567.91 1120.24 1611.55C1066.33 1636.18 1011.44 1667.04 968.504 1704.5C945.961 1724.17 926.035 1746.27 911.441 1770.85C896.763 1746.21 876.629 1724.09 853.843 1704.42C810.446 1666.96 754.831 1636.12 700.175 1611.5C603.953 1568.15 506.146 1542.19 474.957 1533.91C470.727 1532.79 467.723 1531.99 466.113 1531.52C458.866 1529.39 448.747 1527.14 436.47 1524.42C390.466 1514.19 314.147 1497.24 244.943 1454.84L244.661 1454.67L244.374 1454.5C141.212 1395.07 91.5957 1279.45 68.3837 1173.64C56.8995 1121.29 52.1939 1072.73 50.3729 1037.22C49.5115 1020.42 49.2988 1006.6 49.3112 996.774C54.3348 994.986 60.2887 992.748 66.9856 990.023C87.8984 981.514 116.282 968.154 146.296 948.675C206.151 909.828 274.243 845.425 300.145 745.2L300.337 744.454L300.482 743.697C328.376 597.97 307.631 499.861 265.757 436.686C235.849 391.565 196.217 365.934 159.591 353.938L373.605 74.8474C398.572 94.7905 430.321 111.075 464.865 124.538C510.623 142.371 563.589 156.122 617.421 166.635C722.932 187.241 834.232 195.878 906.484 197.594L906.486 197.691C907.211 197.676 907.939 197.661 908.672 197.645Z" fill="#0C0C0C"/>
<path d="M694.377 1047.16C702.985 1037.72 709.681 1027.04 714.463 1015.11C719.245 1002.69 723.55 991.019 727.376 980.089L837.132 639.52L820.633 588.844H948.323L1074.58 980.089C1077.93 991.019 1081.99 1002.69 1086.77 1015.11C1091.56 1027.04 1098.25 1037.72 1106.86 1047.16H952.627C955.497 1037.72 956.214 1027.04 954.779 1015.11C953.345 1002.69 950.714 991.019 946.888 980.089L934.693 939.846H803.416L791.221 980.089C787.395 991.019 784.765 1002.69 783.33 1015.11C781.895 1027.04 782.373 1037.72 784.765 1047.16H694.377ZM924.65 907.056L868.696 726.711L813.459 907.056H924.65Z" fill="white"/>
<path d="M1137.41 1398.53C1143.31 1389.41 1147.48 1379.08 1149.94 1367.56C1152.39 1355.55 1153.62 1344.26 1153.62 1333.7V1020.33C1153.62 1009.77 1152.39 998.719 1149.94 987.193C1147.48 975.667 1143.31 965.101 1137.41 955.496H1300.2C1294.31 965.101 1290.13 975.667 1287.68 987.193C1285.22 998.719 1283.99 1009.77 1283.99 1020.33V1175.93H1402.58V1020.33C1402.58 1009.77 1401.35 998.719 1398.9 987.193C1396.44 975.667 1392.27 965.101 1386.38 955.496H1549.9C1544 965.101 1539.83 975.667 1537.38 987.193C1534.92 998.719 1533.69 1009.77 1533.69 1020.33V1333.7C1533.69 1344.26 1534.92 1355.55 1537.38 1367.56C1539.83 1379.08 1544 1389.41 1549.9 1398.53H1386.38C1392.27 1389.41 1396.44 1379.08 1398.9 1367.56C1401.35 1355.55 1402.58 1344.26 1402.58 1333.7V1206.91H1283.99V1333.7C1283.99 1344.26 1285.22 1355.55 1287.68 1367.56C1290.13 1379.08 1294.31 1389.41 1300.2 1398.53H1137.41Z" fill="white"/>
<path d="M612.65 328.838C592.261 328.838 574.109 334.988 558.195 347.288C542.282 359.589 528.855 375.087 517.914 393.784C506.973 411.989 498.519 432.161 492.551 454.302C487.081 475.951 484.346 496.616 484.346 516.296C484.346 545.325 486.832 572.632 491.805 598.217C497.276 623.802 504.984 646.189 514.93 665.378C525.373 684.566 538.055 699.819 552.974 711.135C568.39 721.96 585.796 727.372 605.191 727.372C627.569 727.372 649.948 719.746 672.326 704.493C695.202 689.241 717.83 664.148 740.208 629.214L721.559 754.679C700.175 754.679 678.791 754.925 657.407 755.417C636.023 756.401 614.639 756.893 593.255 756.893C558.941 756.893 527.363 750.989 498.519 739.18C469.675 727.372 444.81 710.889 423.924 689.733C403.037 668.576 386.874 643.483 375.436 614.454C363.998 584.933 358.28 552.46 358.28 517.034C358.28 489.481 362.755 462.666 371.707 436.589C380.658 410.512 394.085 387.388 411.988 367.215C429.891 346.55 452.27 330.068 479.124 317.767C506.476 304.975 538.303 298.578 574.606 298.578C604.445 298.578 631.796 299.07 656.661 300.054C682.024 300.547 709.624 300.793 739.462 300.793L725.289 404.116L612.65 328.838Z" fill="white"/>
</svg>
