<svg width="384" height="101" viewBox="0 0 384 101" fill="none" xmlns="http://www.w3.org/2000/svg">
<path d="M33.7599 24.8111H24.8821C24.7637 23.8996 24.5211 23.0769 24.1541 22.343C23.7872 21.6091 23.3018 20.9818 22.6982 20.4609C22.0945 19.9401 21.3783 19.5436 20.5497 19.2713C19.733 18.9872 18.8274 18.8452 17.8331 18.8452C16.0694 18.8452 14.5483 19.2772 13.2699 20.1413C12.0033 21.0054 11.0268 22.2543 10.3402 23.8878C9.66548 25.5213 9.32812 27.4981 9.32812 29.8182C9.32812 32.233 9.6714 34.2571 10.358 35.8906C11.0563 37.5123 12.0329 38.7375 13.2876 39.5661C14.5542 40.3828 16.0516 40.7912 17.7798 40.7912C18.7505 40.7912 19.6323 40.6669 20.4254 40.4183C21.2304 40.1697 21.9347 39.8087 22.5384 39.3352C23.1539 38.8499 23.657 38.264 24.0476 37.5774C24.45 36.879 24.7282 36.0919 24.8821 35.2159L33.7599 35.2692C33.6061 36.879 33.1385 38.4652 32.3572 40.0277C31.5878 41.5902 30.5284 43.0166 29.179 44.3068C27.8295 45.5852 26.1842 46.6032 24.2429 47.3608C22.3134 48.1184 20.0999 48.4972 17.6023 48.4972C14.3116 48.4972 11.3641 47.7751 8.75994 46.331C6.16761 44.875 4.11979 42.7562 2.61648 39.9744C1.11316 37.1927 0.361506 33.8073 0.361506 29.8182C0.361506 25.8172 1.125 22.4259 2.65199 19.6442C4.17898 16.8625 6.24456 14.7495 8.84872 13.3054C11.4529 11.8613 14.3707 11.1392 17.6023 11.1392C19.804 11.1392 21.84 11.447 23.7102 12.0625C25.5805 12.6662 27.2259 13.554 28.6463 14.7259C30.0668 15.8859 31.2209 17.3123 32.1087 19.005C32.9964 20.6977 33.5469 22.633 33.7599 24.8111ZM37.7892 48V11.6364H46.5783V40.8622H61.7061V48H37.7892ZM87.2553 11.6364H96.0266V35.0916C96.0266 37.8023 95.3815 40.1638 94.0913 42.1761C92.801 44.1766 91.0018 45.7273 88.6935 46.8281C86.3853 47.9171 83.7042 48.4616 80.6502 48.4616C77.5607 48.4616 74.8619 47.9171 72.5536 46.8281C70.2454 45.7273 68.4521 44.1766 67.1737 42.1761C65.8952 40.1638 65.256 37.8023 65.256 35.0916V11.6364H74.0451V34.3281C74.0451 35.5829 74.3174 36.7015 74.8619 37.6839C75.4182 38.6664 76.1935 39.4358 77.1879 39.9922C78.1822 40.5485 79.3363 40.8267 80.6502 40.8267C81.9641 40.8267 83.1123 40.5485 84.0948 39.9922C85.0891 39.4358 85.8645 38.6664 86.4208 37.6839C86.9772 36.7015 87.2553 35.5829 87.2553 34.3281V11.6364ZM100.535 48V11.6364H115.699C118.421 11.6364 120.7 12.0211 122.535 12.7905C124.381 13.5599 125.766 14.6371 126.689 16.022C127.625 17.407 128.092 19.0109 128.092 20.8338C128.092 22.2188 127.802 23.4557 127.222 24.5447C126.642 25.6219 125.843 26.5156 124.825 27.2259C123.807 27.9361 122.629 28.4332 121.292 28.7173V29.0724C122.76 29.1435 124.115 29.54 125.358 30.2621C126.613 30.9841 127.619 31.9903 128.376 33.2805C129.134 34.5589 129.513 36.0741 129.513 37.826C129.513 39.7791 129.015 41.5251 128.021 43.0639C127.027 44.5909 125.589 45.7983 123.706 46.6861C121.824 47.562 119.54 48 116.853 48H100.535ZM109.324 40.9155H114.758C116.663 40.9155 118.066 40.5545 118.966 39.8324C119.877 39.1103 120.333 38.1042 120.333 36.8139C120.333 35.8788 120.114 35.0739 119.676 34.3991C119.238 33.7126 118.617 33.1858 117.812 32.8189C117.007 32.4401 116.042 32.2507 114.917 32.2507H109.324V40.9155ZM109.324 26.5866H114.189C115.148 26.5866 116.001 26.4268 116.746 26.1072C117.492 25.7876 118.072 25.326 118.486 24.7223C118.912 24.1186 119.126 23.3906 119.126 22.5384C119.126 21.3191 118.693 20.3603 117.829 19.6619C116.965 18.9635 115.799 18.6143 114.331 18.6143H109.324V26.5866ZM150.346 48H140.9L153.17 11.6364H164.871L177.14 48H167.694L159.153 20.7983H158.869L150.346 48ZM149.086 33.6889H168.83V40.3651H149.086V33.6889ZM174.324 18.7741V11.6364H205.059V18.7741H194.033V48H185.368V18.7741H174.324ZM208.352 48V11.6364H217.141V40.8622H232.269V48H208.352ZM235.819 48V11.6364H261.174V18.7741H244.608V26.2315H259.877V33.3871H244.608V40.8622H261.174V48H235.819ZM245.584 8.174L249.171 0.166191H256.859L251.497 8.174H245.584ZM264.488 18.7741V11.6364H295.223V18.7741H284.197V48H275.532V18.7741H264.488ZM307.305 11.6364V48H298.516V11.6364H307.305ZM344.83 24.8111H335.952C335.834 23.8996 335.591 23.0769 335.224 22.343C334.857 21.6091 334.372 20.9818 333.768 20.4609C333.165 19.9401 332.449 19.5436 331.62 19.2713C330.803 18.9872 329.898 18.8452 328.903 18.8452C327.14 18.8452 325.619 19.2772 324.34 20.1413C323.074 21.0054 322.097 22.2543 321.411 23.8878C320.736 25.5213 320.398 27.4981 320.398 29.8182C320.398 32.233 320.742 34.2571 321.428 35.8906C322.127 37.5123 323.103 38.7375 324.358 39.5661C325.625 40.3828 327.122 40.7912 328.85 40.7912C329.821 40.7912 330.703 40.6669 331.496 40.4183C332.301 40.1697 333.005 39.8087 333.609 39.3352C334.224 38.8499 334.727 38.264 335.118 37.5774C335.52 36.879 335.799 36.0919 335.952 35.2159L344.83 35.2692C344.676 36.879 344.209 38.4652 343.428 40.0277C342.658 41.5902 341.599 43.0166 340.249 44.3068C338.9 45.5852 337.254 46.6032 335.313 47.3608C333.384 48.1184 331.17 48.4972 328.673 48.4972C325.382 48.4972 322.434 47.7751 319.83 46.331C317.238 44.875 315.19 42.7562 313.687 39.9744C312.183 37.1927 311.432 33.8073 311.432 29.8182C311.432 25.8172 312.195 22.4259 313.722 19.6442C315.249 16.8625 317.315 14.7495 319.919 13.3054C322.523 11.8613 325.441 11.1392 328.673 11.1392C330.874 11.1392 332.91 11.447 334.781 12.0625C336.651 12.6662 338.296 13.554 339.717 14.7259C341.137 15.8859 342.291 17.3123 343.179 19.005C344.067 20.6977 344.617 22.633 344.83 24.8111ZM383.181 29.8182C383.181 33.8191 382.412 37.2105 380.873 39.9922C379.334 42.7739 377.251 44.8868 374.623 46.331C372.007 47.7751 369.071 48.4972 365.816 48.4972C362.549 48.4972 359.608 47.7692 356.992 46.3132C354.376 44.8572 352.298 42.7443 350.759 39.9744C349.232 37.1927 348.469 33.8073 348.469 29.8182C348.469 25.8172 349.232 22.4259 350.759 19.6442C352.298 16.8625 354.376 14.7495 356.992 13.3054C359.608 11.8613 362.549 11.1392 365.816 11.1392C369.071 11.1392 372.007 11.8613 374.623 13.3054C377.251 14.7495 379.334 16.8625 380.873 19.6442C382.412 22.4259 383.181 25.8172 383.181 29.8182ZM374.197 29.8182C374.197 27.4508 373.86 25.4503 373.185 23.8168C372.522 22.1832 371.563 20.9463 370.308 20.1058C369.066 19.2654 367.568 18.8452 365.816 18.8452C364.076 18.8452 362.579 19.2654 361.324 20.1058C360.069 20.9463 359.105 22.1832 358.43 23.8168C357.767 25.4503 357.436 27.4508 357.436 29.8182C357.436 32.1856 357.767 34.1861 358.43 35.8196C359.105 37.4531 360.069 38.6901 361.324 39.5305C362.579 40.371 364.076 40.7912 365.816 40.7912C367.568 40.7912 369.066 40.371 370.308 39.5305C371.563 38.6901 372.522 37.4531 373.185 35.8196C373.86 34.1861 374.197 32.1856 374.197 29.8182Z" fill="white"/>
<path d="M0.752131 100V63.6364H9.54119V78.2315H23.87V63.6364H32.6413V100H23.87V85.3871H9.54119V100H0.752131ZM59.1538 63.6364H67.9251V87.0916C67.9251 89.8023 67.2799 92.1638 65.9897 94.1761C64.6995 96.1766 62.9002 97.7273 60.592 98.8281C58.2837 99.9171 55.6026 100.462 52.5487 100.462C49.4592 100.462 46.7603 99.9171 44.4521 98.8281C42.1438 97.7273 40.3505 96.1766 39.0721 94.1761C37.7937 92.1638 37.1545 89.8023 37.1545 87.0916V63.6364H45.9435V86.3281C45.9435 87.5829 46.2158 88.7015 46.7603 89.6839C47.3166 90.6664 48.092 91.4358 49.0863 91.9922C50.0806 92.5485 51.2347 92.8267 52.5487 92.8267C53.8626 92.8267 55.0108 92.5485 55.9933 91.9922C56.9876 91.4358 57.7629 90.6664 58.3192 89.6839C58.8756 88.7015 59.1538 87.5829 59.1538 86.3281V63.6364ZM72.4338 100V63.6364H87.4551C90.1776 63.6364 92.5273 64.1276 94.5041 65.1101C96.4927 66.0807 98.0256 67.4775 99.1028 69.3004C100.18 71.1115 100.719 73.2599 100.719 75.7457C100.719 78.267 100.168 80.4096 99.0673 82.1733C97.9664 83.9252 96.4039 85.2628 94.3798 86.1861C92.3556 87.0975 89.9586 87.5533 87.1887 87.5533H77.6895V80.6286H85.5552C86.881 80.6286 87.9877 80.4569 88.8755 80.1136C89.7752 79.7585 90.4558 79.2259 90.9174 78.5156C91.3791 77.7936 91.6099 76.8703 91.6099 75.7457C91.6099 74.6212 91.3791 73.692 90.9174 72.9581C90.4558 72.2124 89.7752 71.656 88.8755 71.2891C87.9759 70.9103 86.8691 70.7209 85.5552 70.7209H81.2228V100H72.4338ZM92.9061 83.3807L101.961 100H92.3734L83.4956 83.3807H92.9061ZM112.405 100H102.959L115.228 63.6364H126.929L139.198 100H129.752L121.212 72.7983H120.928L112.405 100ZM111.144 85.6889H130.889V92.3651H111.144V85.6889ZM173.412 76.8111H164.534C164.416 75.8996 164.173 75.0769 163.806 74.343C163.44 73.6091 162.954 72.9818 162.35 72.4609C161.747 71.9401 161.031 71.5436 160.202 71.2713C159.385 70.9872 158.48 70.8452 157.485 70.8452C155.722 70.8452 154.201 71.2772 152.922 72.1413C151.656 73.0054 150.679 74.2543 149.993 75.8878C149.318 77.5213 148.98 79.4981 148.98 81.8182C148.98 84.233 149.324 86.2571 150.01 87.8906C150.709 89.5123 151.685 90.7375 152.94 91.5661C154.207 92.3828 155.704 92.7912 157.432 92.7912C158.403 92.7912 159.285 92.6669 160.078 92.4183C160.883 92.1697 161.587 91.8087 162.191 91.3352C162.806 90.8499 163.309 90.264 163.7 89.5774C164.102 88.879 164.381 88.0919 164.534 87.2159L173.412 87.2692C173.258 88.879 172.791 90.4652 172.01 92.0277C171.24 93.5902 170.181 95.0166 168.831 96.3068C167.482 97.5852 165.837 98.6032 163.895 99.3608C161.966 100.118 159.752 100.497 157.255 100.497C153.964 100.497 151.016 99.7751 148.412 98.331C145.82 96.875 143.772 94.7562 142.269 91.9744C140.766 89.1927 140.014 85.8073 140.014 81.8182C140.014 77.8172 140.777 74.4259 142.304 71.6442C143.831 68.8625 145.897 66.7495 148.501 65.3054C151.105 63.8613 154.023 63.1392 157.255 63.1392C159.456 63.1392 161.492 63.447 163.363 64.0625C165.233 64.6662 166.878 65.554 168.299 66.7259C169.719 67.8859 170.873 69.3123 171.761 71.005C172.649 72.6977 173.199 74.633 173.412 76.8111ZM184.38 100H174.934L187.203 63.6364H198.904L211.173 100H201.727L193.186 72.7983H192.902L184.38 100ZM183.119 85.6889H202.863V92.3651H183.119V85.6889ZM190.061 60.174L193.648 52.1662H201.336L195.974 60.174H190.061ZM245.036 63.6364V100H237.579L223.108 79.0128H222.877V100H214.088V63.6364H221.652L235.963 84.5881H236.265V63.6364H245.036Z" fill="#F40909"/>
</svg>
