<svg width="30" height="30" viewBox="0 0 30 30" fill="none" xmlns="http://www.w3.org/2000/svg">
<path d="M28.1771 0.677002H1.82291C1.18912 0.677002 0.677078 1.18905 0.677078 1.82284V28.177C0.677078 28.8108 1.18912 29.3228 1.82291 29.3228H28.1771C28.8109 29.3228 29.3229 28.8108 29.3229 28.177V1.82284C29.3229 1.18905 28.8109 0.677002 28.1771 0.677002ZM24.8685 9.038H22.5804C20.7865 9.038 20.4391 9.89022 20.4391 11.1435V13.9042H24.7217L24.1631 18.2262H20.4391V29.3228H15.974V18.2297H12.2393V13.9042H15.974V10.7174C15.974 7.01847 18.2334 5.00252 21.5348 5.00252C23.1175 5.00252 24.4746 5.12069 24.8721 5.1744V9.038H24.8685Z" fill="white"/>
</svg>
