<svg id="visual" viewBox="0 0 1366 2066" width="1366" height="2066" xmlns="http://www.w3.org/2000/svg" xmlns:xlink="http://www.w3.org/1999/xlink" version="1.1"><rect x="0" y="0" width="1366" height="2066" fill="#161616"></rect><g transform="translate(1290.2622971110054 1912.5526249337763)"><path d="M818 -993.1C1023.1 -802.6 1127.1 -509.9 1099.9 -254.5C1072.7 0.8 914.4 218.6 784.1 460.6C653.8 702.6 551.6 968.7 308.8 1216.8C66 1465 -317.4 1695.2 -579.1 1597.2C-840.7 1499.3 -980.7 1073.1 -948 737.4C-915.3 401.7 -709.9 156.4 -702.2 -164.9C-694.6 -486.2 -884.7 -883.5 -800.6 -1095.4C-716.5 -1307.2 -358.2 -1333.6 -25.9 -1302.7C306.4 -1271.8 612.8 -1183.6 818 -993.1" fill="#f40909"></path></g></svg>