<svg width="30" height="30" viewBox="0 0 30 30" fill="none" xmlns="http://www.w3.org/2000/svg">
<g clip-path="url(#clip0_19_110)">
<path d="M15.1442 11.3937C14.431 11.394 13.734 11.6057 13.1411 12.0021C12.5482 12.3986 12.0862 12.9619 11.8135 13.6208C11.5407 14.2798 11.4695 15.0049 11.6088 15.7043C11.7481 16.4038 12.0917 17.0462 12.5961 17.5504C13.1005 18.0546 13.743 18.3979 14.4425 18.537C15.142 18.676 15.8671 18.6045 16.5259 18.3315C17.1848 18.0585 17.7479 17.5963 18.1441 17.0033C18.5403 16.4103 18.7518 15.7131 18.7518 14.9999C18.7511 14.0435 18.3707 13.1265 17.6943 12.4503C17.0179 11.7741 16.1007 11.3941 15.1442 11.3937ZM23.5756 8.62179C23.3921 8.15654 23.1148 7.73397 22.7612 7.3803C22.4075 7.02664 21.9849 6.74941 21.5197 6.56582C20.0999 6.00535 16.7195 6.1311 15.1442 6.1311C13.569 6.1311 10.1919 6.00062 8.7681 6.56582C8.30285 6.74941 7.88029 7.02664 7.52662 7.3803C7.17295 7.73397 6.89573 8.15654 6.71214 8.62179C6.15234 10.0416 6.27742 13.4253 6.27742 14.9993C6.27742 16.5732 6.15234 19.9529 6.71484 21.3774C6.89843 21.8427 7.17566 22.2652 7.52932 22.6189C7.88299 22.9726 8.30556 23.2498 8.77081 23.4334C10.1906 23.9939 13.571 23.8681 15.1469 23.8681C16.7229 23.8681 20.0986 23.9986 21.5224 23.4334C21.9876 23.2498 22.4102 22.9726 22.7639 22.6189C23.1175 22.2652 23.3948 21.8427 23.5784 21.3774C24.1429 19.9576 24.0131 16.5739 24.0131 14.9999C24.0131 13.426 24.1429 10.047 23.5784 8.62246L23.5756 8.62179ZM15.1442 20.5438C14.0478 20.5438 12.9759 20.2187 12.0642 19.6095C11.1525 19.0003 10.442 18.1345 10.0224 17.1215C9.60276 16.1085 9.49297 14.9938 9.70689 13.9184C9.9208 12.843 10.4488 11.8552 11.2241 11.0798C11.9994 10.3045 12.9873 9.77651 14.0627 9.5626C15.1381 9.34869 16.2528 9.45847 17.2658 9.87808C18.2788 10.2977 19.1446 11.0082 19.7538 11.9199C20.363 12.8316 20.6881 13.9035 20.6881 14.9999C20.689 15.7282 20.5462 16.4495 20.2679 17.1225C19.9896 17.7956 19.5813 18.4071 19.0663 18.922C18.5514 19.437 17.9398 19.8453 17.2668 20.1236C16.5938 20.4019 15.8725 20.5447 15.1442 20.5438ZM20.9166 10.5175C20.6607 10.5177 20.4104 10.4419 20.1975 10.2998C19.9846 10.1577 19.8187 9.95561 19.7206 9.71917C19.6226 9.48273 19.5968 9.22252 19.6467 8.97147C19.6966 8.7204 19.8197 8.48977 20.0007 8.30873C20.1816 8.12769 20.4122 8.00438 20.6632 7.95439C20.9143 7.90441 21.1745 7.93 21.411 8.02792C21.6475 8.12584 21.8496 8.2917 21.9918 8.50451C22.1341 8.71733 22.21 8.96754 22.21 9.2235C22.2107 9.39348 22.1778 9.56192 22.1133 9.71917C22.0488 9.87642 21.9538 10.0194 21.8339 10.1399C21.714 10.2603 21.5715 10.3559 21.4145 10.4212C21.2576 10.4865 21.0893 10.5201 20.9193 10.5202L20.9166 10.5175ZM27.0433 -0.144287H3.24519C2.38451 -0.144287 1.55909 0.197616 0.950495 0.806208C0.341903 1.4148 0 2.24023 0 3.1009L0 26.899C0 27.7597 0.341903 28.5851 0.950495 29.1937C1.55909 29.8023 2.38451 30.1442 3.24519 30.1442H27.0433C27.9039 30.1442 28.7294 29.8023 29.338 29.1937C29.9466 28.5851 30.2885 27.7597 30.2885 26.899V3.1009C30.2885 2.24023 29.9466 1.4148 29.338 0.806208C28.7294 0.197616 27.9039 -0.144287 27.0433 -0.144287ZM25.8858 19.4621C25.7986 21.1949 25.4031 22.7303 24.1381 23.9918C22.8732 25.2534 21.3392 25.657 19.6084 25.7395C17.8229 25.8402 12.4697 25.8402 10.6841 25.7395C8.95132 25.6523 7.42135 25.2561 6.15437 23.9918C4.88739 22.7276 4.48918 21.1915 4.4067 19.4621C4.30596 17.6759 4.30596 12.322 4.4067 10.5378C4.49392 8.80501 4.88469 7.26962 6.15437 6.00806C7.42405 4.74649 8.95808 4.3476 10.6841 4.26512C12.4697 4.16438 17.8229 4.16438 19.6084 4.26512C21.3412 4.35233 22.8759 4.74852 24.1381 6.01279C25.4004 7.27706 25.8033 8.81312 25.8858 10.5459C25.9866 12.3254 25.9866 17.6745 25.8858 19.4621Z" fill="white"/>
</g>
<defs>
<clipPath id="clip0_19_110">
<rect width="30" height="30" fill="white"/>
</clipPath>
</defs>
</svg>
