<svg width="496" height="139" viewBox="0 0 496 139" fill="none" xmlns="http://www.w3.org/2000/svg">
<g clip-path="url(#clip0_2_2)">
<mask id="mask0_2_2" style="mask-type:alpha" maskUnits="userSpaceOnUse" x="2" y="2" width="132" height="137">
<path d="M28.7538 3.25912C35.474 10.7659 57.819 13.1054 68.3507 13.3469C78.8824 13.1054 101.227 10.7659 107.948 3.25912L126.634 28.0895C121.048 28.4559 110.874 34.5045 114.868 55.7677C118.378 69.6068 133.357 73.7535 133.357 73.7535C133.357 73.7535 134.642 101.282 118.131 110.974C111.408 115.171 103.597 116.27 101.422 116.92C99.2471 117.569 69.8831 124.763 68.5484 138.702C67.3125 124.763 37.4542 117.569 35.2791 116.92C33.104 116.27 25.2934 115.171 18.5703 110.974C2.05922 101.282 3.34451 73.7535 3.34451 73.7535C3.34451 73.7535 18.3231 69.6068 21.833 55.7677C25.8273 34.5045 15.6537 28.4559 10.0676 28.0895L28.7538 3.25912Z" fill="#C4C4C4"/>
<path d="M68.5484 13.3512C68.483 13.3498 68.417 13.3484 68.3507 13.3469M68.3507 13.3469C57.819 13.1054 35.474 10.7659 28.7538 3.25912L10.0676 28.0895C15.6537 28.4559 25.8273 34.5045 21.833 55.7677C18.3231 69.6068 3.34451 73.7535 3.34451 73.7535C3.34451 73.7535 2.05922 101.282 18.5703 110.974C25.2934 115.171 33.104 116.27 35.2791 116.92C37.4542 117.569 67.3125 124.763 68.5484 138.702C69.8831 124.763 99.2471 117.569 101.422 116.92C103.597 116.27 111.408 115.171 118.131 110.974C134.642 101.282 133.357 73.7535 133.357 73.7535C133.357 73.7535 118.378 69.6068 114.868 55.7677C110.874 34.5045 121.048 28.4559 126.634 28.0895L107.948 3.25912C101.227 10.7659 78.8824 13.1054 68.3507 13.3469ZM68.3507 13.3469C68.2843 13.3484 68.2184 13.3498 68.1529 13.3512" stroke="black"/>
</mask>
<g mask="url(#mask0_2_2)">
<path d="M56.8139 8.75887H79.6426V134.912H56.8139V8.75887Z" fill="#F40909"/>
<path fill-rule="evenodd" clip-rule="evenodd" d="M79.5687 8.8337H56.8879V134.838H79.5687V8.8337ZM56.8139 8.75887V134.912H79.6426V8.75887H56.8139Z" fill="black"/>
<path d="M79.6426 8.75887H102.471V134.912H79.6426V8.75887Z" fill="#0C0C0C"/>
<path fill-rule="evenodd" clip-rule="evenodd" d="M102.397 8.8337H79.7166V134.838H102.397V8.8337ZM79.6426 8.75887V134.912H102.471V8.75887H79.6426Z" fill="black"/>
<path d="M33.9852 8.75887H56.8139V134.912H33.9852V8.75887Z" fill="#0C0C0C"/>
<path fill-rule="evenodd" clip-rule="evenodd" d="M56.7399 8.8337H34.0592V134.838H56.7399V8.8337ZM33.9852 8.75887V134.912H56.8139V8.75887H33.9852Z" fill="black"/>
<path d="M3.15163 3.26118H33.9852V134.913H3.15163V3.26118Z" fill="#F40909"/>
<path fill-rule="evenodd" clip-rule="evenodd" d="M33.9112 3.33602H3.22561V134.838H33.9112V3.33602ZM3.15163 3.26118V134.913H33.9852V3.26118H3.15163Z" fill="black"/>
<path d="M102.471 3.26088H133.305V134.912H102.471V3.26088Z" fill="#F40909"/>
<path fill-rule="evenodd" clip-rule="evenodd" d="M133.231 3.33571H102.545V134.838H133.231V3.33571ZM102.471 3.26088V134.912H133.305V3.26088H102.471Z" fill="black"/>
</g>
<path fill-rule="evenodd" clip-rule="evenodd" d="M109.209 0L131.792 29.4502L128.358 29.6712C126.029 29.8211 122.538 31.163 120.069 34.8878C117.61 38.5981 116.009 44.9191 117.982 55.2835C119.637 61.6147 123.964 65.787 128.014 68.4155C130.039 69.7294 131.961 70.6347 133.375 71.2101C134.08 71.4971 134.655 71.7003 135.047 71.83C135.243 71.8948 135.393 71.9411 135.49 71.9703C135.538 71.9849 135.574 71.9951 135.595 72.0013L135.611 72.0057L135.617 72.0074L135.618 72.0077L135.619 72.0079L135.62 72.0081L136.911 72.3589L136.974 73.6888L135.13 73.7752C136.974 73.6888 136.974 73.6894 136.974 73.6902L136.974 73.6922L136.974 73.6983L136.975 73.7179C136.976 73.7343 136.977 73.7573 136.978 73.7868C136.98 73.8457 136.983 73.9305 136.986 74.0397C136.992 74.258 136.998 74.5743 137 74.9771C137.003 75.7826 136.987 76.936 136.915 78.3474C136.771 81.1659 136.397 85.0355 135.477 89.2291C133.657 97.5261 129.6 107.517 120.472 112.788C114.608 116.374 107.834 117.854 104.546 118.573C103.817 118.732 103.259 118.854 102.92 118.953C102.774 118.996 102.527 119.063 102.193 119.153C99.7899 119.8 92.8625 121.667 85.9991 124.803C82.0908 126.589 78.3099 128.741 75.4501 131.236C72.5788 133.742 70.8189 136.429 70.5404 139.283L66.8637 139.27C66.6072 136.431 64.8467 133.75 61.9421 131.243C59.0506 128.747 55.2169 126.594 51.2506 124.807C44.3384 121.693 37.3606 119.832 34.874 119.169C34.5059 119.071 34.2362 118.999 34.0797 118.953C33.7414 118.854 33.1834 118.732 32.4536 118.573C29.1656 117.854 22.3921 116.374 16.5279 112.788C7.39951 107.517 3.34316 97.5261 1.52293 89.2291C0.602906 85.0355 0.229404 81.1659 0.084882 78.3474C0.0125101 76.936 -0.00271226 75.7826 0.00036837 74.9771C0.00190921 74.5743 0.00803055 74.258 0.0139022 74.0397C0.0168383 73.9305 0.0197131 73.8457 0.0219237 73.7868C0.023029 73.7573 0.0239686 73.7343 0.024667 73.7179L0.0255244 73.6983L0.0258961 73.6902C0.0259323 73.6894 0.0259635 73.6888 1.87027 73.7752L0.0259636 73.6888L0.0892343 72.3589L1.38013 72.0081L1.3808 72.0079L1.38166 72.0077L1.38286 72.0074C1.3865 72.0064 1.39377 72.0043 1.40452 72.0013C1.42601 71.9951 1.46149 71.9849 1.51013 71.9703C1.60743 71.9411 1.75725 71.8948 1.95307 71.83C2.34496 71.7003 2.91958 71.4971 3.62504 71.2101C5.03899 70.6347 6.96149 69.7294 8.98595 68.4155C13.036 65.787 17.3626 61.6146 19.0176 55.2834C20.9911 44.919 19.3901 38.5981 16.9308 34.8878C14.4619 31.163 10.971 29.8211 8.64178 29.6712L5.20778 29.4502L27.7911 2.33058e-07L29.2828 1.63525C30.7354 3.22766 33.1735 4.67079 36.3805 5.92062C39.5543 7.1575 43.3161 8.14267 47.2486 8.91067C54.9952 10.4235 63.2166 11.0581 68.5 11.1793C73.7834 11.0581 82.0048 10.4235 89.7514 8.91067C93.6839 8.14267 97.4457 7.1575 100.619 5.92062C103.826 4.67079 106.265 3.22766 107.717 1.63525L109.209 0ZM68.5 14.846C68.5553 14.8472 68.6102 14.8483 68.6649 14.8495L68.665 14.8422C74.1137 14.7127 82.5073 14.0614 90.4642 12.5074C94.5239 11.7146 98.5182 10.6776 101.969 9.33275C104.574 8.31749 106.968 7.08939 108.851 5.58542L124.991 26.6325C122.229 27.5372 119.24 29.4701 116.984 32.8729C113.826 37.6371 112.262 45.0358 114.366 56.0256L114.377 56.0826L114.391 56.1389C116.344 63.6972 121.479 68.5541 125.993 71.4836C128.257 72.9526 130.397 73.9601 131.974 74.6018C132.479 74.8074 132.928 74.9761 133.307 75.111C133.308 75.8522 133.292 76.894 133.227 78.161C133.09 80.8392 132.735 84.5015 131.869 88.4491C130.118 96.4282 126.377 105.148 118.597 109.63L118.575 109.642L118.554 109.655C113.335 112.853 107.58 114.131 104.11 114.902C103.184 115.108 102.421 115.277 101.875 115.438C101.758 115.472 101.547 115.529 101.252 115.608C98.9656 116.221 91.6584 118.182 84.4551 121.473C80.3894 123.331 76.2501 125.658 73.0121 128.483C71.312 129.967 69.8094 131.633 68.7088 133.486C67.6019 131.629 66.0835 129.96 64.3651 128.477C61.0924 125.652 56.8983 123.326 52.7766 121.469C45.5201 118.2 38.1441 116.242 35.7921 115.618C35.4731 115.533 35.2465 115.473 35.1252 115.438C34.5786 115.277 33.8156 115.108 32.8897 114.902C29.4204 114.131 23.6649 112.853 18.446 109.655L18.4247 109.642L18.4031 109.63C10.6233 105.148 6.88158 96.4282 5.13108 88.4491C4.26502 84.5015 3.91015 80.8392 3.77283 78.161C3.70786 76.894 3.69183 75.8522 3.69276 75.111C4.07161 74.9761 4.52061 74.8074 5.02565 74.6018C6.60274 73.9601 8.74327 72.9526 11.0067 71.4836C15.5206 68.5541 20.6556 63.6972 22.6089 56.1389L22.6235 56.0826L22.6344 56.0256C24.738 45.0358 23.1735 37.6371 20.0157 32.8729C17.7602 29.4702 14.7714 27.5372 12.0093 26.6325L28.1489 5.58542C30.0317 7.08939 32.4259 8.31749 35.031 9.33275C38.4818 10.6776 42.4761 11.7146 46.5358 12.5074C54.4927 14.0614 62.8863 14.7127 68.335 14.8422L68.3351 14.8495C68.3898 14.8483 68.4447 14.8472 68.5 14.846Z" fill="#0C0C0C"/>
<path d="M52.3393 78.9107C52.9885 78.1988 53.4934 77.3933 53.8541 76.4941C54.2147 75.5574 54.5393 74.677 54.8279 73.8527L63.105 48.1693L61.8607 44.3477H71.4902L81.0116 73.8527C81.2641 74.677 81.5706 75.5574 81.9313 76.4941C82.2919 77.3933 82.7969 78.1988 83.446 78.9107H71.8148C72.0312 78.1988 72.0853 77.3933 71.9771 76.4941C71.8689 75.5574 71.6706 74.677 71.382 73.8527L70.4624 70.8179H60.5623L59.6426 73.8527C59.3541 74.677 59.1558 75.5574 59.0476 76.4941C58.9394 77.3933 58.9754 78.1988 59.1558 78.9107H52.3393ZM69.705 68.3451L65.4853 54.7447L61.3197 68.3451H69.705Z" fill="white"/>
<path d="M85.7502 105.409C86.1946 104.721 86.5094 103.942 86.6945 103.073C86.8797 102.168 86.9723 101.316 86.9723 100.52V76.8875C86.9723 76.0907 86.8797 75.2577 86.6945 74.3885C86.5094 73.5192 86.1946 72.7224 85.7502 71.9981H98.0263C97.5819 72.7224 97.2671 73.5192 97.082 74.3885C96.8968 75.2577 96.8042 76.0907 96.8042 76.8875V88.622H105.747V76.8875C105.747 76.0907 105.655 75.2577 105.47 74.3885C105.285 73.5192 104.97 72.7224 104.525 71.9981H116.857C116.413 72.7224 116.098 73.5192 115.913 74.3885C115.727 75.2577 115.635 76.0907 115.635 76.8875V100.52C115.635 101.316 115.727 102.168 115.913 103.073C116.098 103.942 116.413 104.721 116.857 105.409H104.525C104.97 104.721 105.285 103.942 105.47 103.073C105.655 102.168 105.747 101.316 105.747 100.52V90.9581H96.8042V100.52C96.8042 101.316 96.8968 102.168 97.082 103.073C97.2671 103.942 97.5819 104.721 98.0263 105.409H85.7502Z" fill="white"/>
<path d="M46.176 24.7397C44.6384 24.7397 43.2695 25.2035 42.0694 26.1311C40.8693 27.0587 39.8567 28.2275 39.0316 29.6375C38.2066 31.0104 37.569 32.5317 37.119 34.2014C36.7064 35.834 36.5002 37.3924 36.5002 38.8766C36.5002 41.0657 36.6877 43.125 37.0627 45.0545C37.4752 46.9839 38.0565 48.6722 38.8066 50.1193C39.5942 51.5664 40.5505 52.7166 41.6756 53.57C42.8382 54.3863 44.1508 54.7945 45.6134 54.7945C47.3011 54.7945 48.9887 54.2193 50.6764 53.0691C52.4015 51.9189 54.1079 50.0265 55.7956 47.3921L54.3892 56.8538C52.7766 56.8538 51.1639 56.8723 49.5513 56.9094C47.9387 56.9836 46.326 57.0207 44.7134 57.0207C42.1256 57.0207 39.7442 56.5755 37.569 55.685C35.3938 54.7945 33.5186 53.5515 31.9435 51.956C30.3684 50.3605 29.1495 48.4681 28.2869 46.2789C27.4244 44.0527 26.9931 41.6038 26.9931 38.9322C26.9931 36.8544 27.3306 34.8321 28.0057 32.8656C28.6807 30.899 29.6933 29.1551 31.0434 27.6338C32.3935 26.0754 34.0812 24.8324 36.1064 23.9048C38.169 22.9401 40.5693 22.4577 43.307 22.4577C45.5572 22.4577 47.6199 22.4948 49.495 22.569C51.4077 22.6062 53.4891 22.6247 55.7393 22.6247L54.6705 30.4167L46.176 24.7397Z" fill="white"/>
<path d="M190.9 67.4C187.4 67.4 184.233 66.6333 181.4 65.1C178.6 63.5333 176.4 61.4 174.8 58.7C173.2 55.9667 172.4 52.9 172.4 49.5C172.4 46.1 173.2 43.05 174.8 40.35C176.4 37.6167 178.617 35.4833 181.45 33.95C184.283 32.3833 187.45 31.6 190.95 31.6C193.683 31.6 196.183 32.0667 198.45 33C200.717 33.9 202.65 35.25 204.25 37.05L201 40.2C198.367 37.4333 195.083 36.05 191.15 36.05C188.55 36.05 186.2 36.6333 184.1 37.8C182 38.9667 180.35 40.5833 179.15 42.65C177.983 44.6833 177.4 46.9667 177.4 49.5C177.4 52.0333 177.983 54.3333 179.15 56.4C180.35 58.4333 182 60.0333 184.1 61.2C186.2 62.3667 188.55 62.95 191.15 62.95C195.05 62.95 198.333 61.55 201 58.75L204.25 61.9C202.65 63.7 200.7 65.0667 198.4 66C196.133 66.9333 193.633 67.4 190.9 67.4Z" fill="black"/>
<path d="M210.683 29.9H215.483V67H210.683V29.9Z" fill="black"/>
<path d="M249.348 40.5V67H244.798V63C243.831 64.3667 242.548 65.4333 240.948 66.2C239.381 66.9333 237.664 67.3 235.798 67.3C232.264 67.3 229.481 66.3333 227.448 64.4C225.414 62.4333 224.398 59.55 224.398 55.75V40.5H229.198V55.2C229.198 57.7667 229.814 59.7167 231.048 61.05C232.281 62.35 234.048 63 236.348 63C238.881 63 240.881 62.2333 242.348 60.7C243.814 59.1667 244.548 57 244.548 54.2V40.5H249.348Z" fill="black"/>
<path d="M272.536 40.25C275.102 40.25 277.402 40.8167 279.436 41.95C281.469 43.0833 283.052 44.6667 284.186 46.7C285.352 48.7333 285.936 51.0833 285.936 53.75C285.936 56.4167 285.352 58.7833 284.186 60.85C283.052 62.8833 281.469 64.4667 279.436 65.6C277.402 66.7333 275.102 67.3 272.536 67.3C270.569 67.3 268.769 66.9167 267.136 66.15C265.502 65.3833 264.152 64.2667 263.086 62.8V67H258.486V29.9H263.286V44.5C264.352 43.1 265.686 42.05 267.286 41.35C268.886 40.6167 270.636 40.25 272.536 40.25ZM272.136 63.1C273.836 63.1 275.352 62.7167 276.686 61.95C278.052 61.15 279.119 60.05 279.886 58.65C280.686 57.2167 281.086 55.5833 281.086 53.75C281.086 51.9167 280.686 50.3 279.886 48.9C279.119 47.4667 278.052 46.3667 276.686 45.6C275.352 44.8333 273.836 44.45 272.136 44.45C270.469 44.45 268.952 44.8333 267.586 45.6C266.219 46.3667 265.152 47.4667 264.386 48.9C263.619 50.3 263.236 51.9167 263.236 53.75C263.236 55.5833 263.619 57.2167 264.386 58.65C265.152 60.05 266.219 61.15 267.586 61.95C268.952 62.7167 270.469 63.1 272.136 63.1Z" fill="black"/>
<path d="M328.995 58.25H310.395L306.545 67H301.395L317.245 32H322.195L338.095 67H332.845L328.995 58.25ZM327.245 54.25L319.695 37.1L312.145 54.25H327.245Z" fill="black"/>
<path d="M357.272 65.45C356.572 66.05 355.706 66.5167 354.672 66.85C353.639 67.15 352.572 67.3 351.472 67.3C348.806 67.3 346.739 66.5833 345.272 65.15C343.806 63.7167 343.072 61.6667 343.072 59V44.45H338.572V40.5H343.072V34.7H347.872V40.5H355.472V44.45H347.872V58.8C347.872 60.2333 348.222 61.3333 348.922 62.1C349.656 62.8667 350.689 63.25 352.022 63.25C353.489 63.25 354.739 62.8333 355.772 62L357.272 65.45Z" fill="black"/>
<path d="M363.075 29.9H367.875V67H363.075V29.9Z" fill="black"/>
<path d="M400.99 53.9C400.99 54.2667 400.957 54.75 400.89 55.35H379.39C379.69 57.6833 380.707 59.5667 382.44 61C384.207 62.4 386.39 63.1 388.99 63.1C392.157 63.1 394.707 62.0333 396.64 59.9L399.29 63C398.09 64.4 396.59 65.4667 394.79 66.2C393.024 66.9333 391.04 67.3 388.84 67.3C386.04 67.3 383.557 66.7333 381.39 65.6C379.224 64.4333 377.54 62.8167 376.34 60.75C375.174 58.6833 374.59 56.35 374.59 53.75C374.59 51.1833 375.157 48.8667 376.29 46.8C377.457 44.7333 379.04 43.1333 381.04 42C383.074 40.8333 385.357 40.25 387.89 40.25C390.424 40.25 392.674 40.8333 394.64 42C396.64 43.1333 398.19 44.7333 399.29 46.8C400.424 48.8667 400.99 51.2333 400.99 53.9ZM387.89 44.3C385.59 44.3 383.657 45 382.09 46.4C380.557 47.8 379.657 49.6333 379.39 51.9H396.39C396.124 49.6667 395.207 47.85 393.64 46.45C392.107 45.0167 390.19 44.3 387.89 44.3ZM390.89 30.15H396.99L388.59 36.65H384.09L390.89 30.15Z" fill="black"/>
<path d="M422.555 65.45C421.855 66.05 420.989 66.5167 419.955 66.85C418.922 67.15 417.855 67.3 416.755 67.3C414.089 67.3 412.022 66.5833 410.555 65.15C409.089 63.7167 408.355 61.6667 408.355 59V44.45H403.855V40.5H408.355V34.7H413.155V40.5H420.755V44.45H413.155V58.8C413.155 60.2333 413.505 61.3333 414.205 62.1C414.939 62.8667 415.972 63.25 417.305 63.25C418.772 63.25 420.022 62.8333 421.055 62L422.555 65.45Z" fill="black"/>
<path d="M428.359 40.5H433.159V67H428.359V40.5ZM430.759 35.4C429.825 35.4 429.042 35.1 428.409 34.5C427.809 33.9 427.509 33.1667 427.509 32.3C427.509 31.4333 427.809 30.7 428.409 30.1C429.042 29.4667 429.825 29.15 430.759 29.15C431.692 29.15 432.459 29.45 433.059 30.05C433.692 30.6167 434.009 31.3333 434.009 32.2C434.009 33.1 433.692 33.8667 433.059 34.5C432.459 35.1 431.692 35.4 430.759 35.4Z" fill="black"/>
<path d="M453.873 67.3C451.173 67.3 448.757 66.7167 446.623 65.55C444.523 64.3833 442.873 62.7833 441.673 60.75C440.473 58.6833 439.873 56.35 439.873 53.75C439.873 51.15 440.473 48.8333 441.673 46.8C442.873 44.7333 444.523 43.1333 446.623 42C448.757 40.8333 451.173 40.25 453.873 40.25C456.273 40.25 458.407 40.7333 460.273 41.7C462.173 42.6667 463.64 44.0667 464.673 45.9L461.023 48.25C460.19 46.9833 459.157 46.0333 457.923 45.4C456.69 44.7667 455.323 44.45 453.823 44.45C452.09 44.45 450.523 44.8333 449.123 45.6C447.757 46.3667 446.673 47.4667 445.873 48.9C445.107 50.3 444.723 51.9167 444.723 53.75C444.723 55.6167 445.107 57.2667 445.873 58.7C446.673 60.1 447.757 61.1833 449.123 61.95C450.523 62.7167 452.09 63.1 453.823 63.1C455.323 63.1 456.69 62.7833 457.923 62.15C459.157 61.5167 460.19 60.5667 461.023 59.3L464.673 61.6C463.64 63.4333 462.173 64.85 460.273 65.85C458.407 66.8167 456.273 67.3 453.873 67.3Z" fill="black"/>
<path d="M481.847 67.3C479.214 67.3 476.847 66.7167 474.747 65.55C472.647 64.3833 470.997 62.7833 469.797 60.75C468.631 58.6833 468.047 56.35 468.047 53.75C468.047 51.15 468.631 48.8333 469.797 46.8C470.997 44.7333 472.647 43.1333 474.747 42C476.847 40.8333 479.214 40.25 481.847 40.25C484.481 40.25 486.831 40.8333 488.897 42C490.997 43.1333 492.631 44.7333 493.797 46.8C494.997 48.8333 495.597 51.15 495.597 53.75C495.597 56.35 494.997 58.6833 493.797 60.75C492.631 62.7833 490.997 64.3833 488.897 65.55C486.831 66.7167 484.481 67.3 481.847 67.3ZM481.847 63.1C483.547 63.1 485.064 62.7167 486.397 61.95C487.764 61.15 488.831 60.05 489.597 58.65C490.364 57.2167 490.747 55.5833 490.747 53.75C490.747 51.9167 490.364 50.3 489.597 48.9C488.831 47.4667 487.764 46.3667 486.397 45.6C485.064 44.8333 483.547 44.45 481.847 44.45C480.147 44.45 478.614 44.8333 477.247 45.6C475.914 46.3667 474.847 47.4667 474.047 48.9C473.281 50.3 472.897 51.9167 472.897 53.75C472.897 55.5833 473.281 57.2167 474.047 58.65C474.847 60.05 475.914 61.15 477.247 61.95C478.614 62.7167 480.147 63.1 481.847 63.1Z" fill="black"/>
<path d="M206.8 74V109H196.9V95.35H183.4V109H173.5V74H183.4V87.15H196.9V74H206.8Z" fill="black"/>
<path d="M241.833 81.9V109H232.783V106.1C231.783 107.2 230.583 108.033 229.183 108.6C227.783 109.167 226.3 109.45 224.733 109.45C221.233 109.45 218.433 108.417 216.333 106.35C214.267 104.283 213.233 101.183 213.233 97.05V81.9H222.733V95.5C222.733 97.5333 223.117 99.0167 223.883 99.95C224.65 100.883 225.767 101.35 227.233 101.35C228.733 101.35 229.95 100.833 230.883 99.8C231.85 98.7333 232.333 97.1167 232.333 94.95V81.9H241.833Z" fill="black"/>
<path d="M257.002 85.15C257.969 83.9167 259.219 83 260.752 82.4C262.319 81.7667 264.102 81.45 266.102 81.45V90C265.236 89.9 264.519 89.85 263.952 89.85C261.919 89.85 260.319 90.4 259.152 91.5C258.019 92.6 257.452 94.2833 257.452 96.55V109H247.952V81.9H257.002V85.15Z" fill="black"/>
<path d="M281.377 81.45C285.877 81.45 289.311 82.4833 291.677 84.55C294.044 86.5833 295.227 89.7167 295.227 93.95V109H286.377V105.5C285.011 108.133 282.344 109.45 278.377 109.45C276.277 109.45 274.461 109.083 272.927 108.35C271.394 107.617 270.227 106.633 269.427 105.4C268.661 104.133 268.277 102.7 268.277 101.1C268.277 98.5333 269.261 96.55 271.227 95.15C273.194 93.7167 276.227 93 280.327 93H285.727C285.561 90.1333 283.644 88.7 279.977 88.7C278.677 88.7 277.361 88.9167 276.027 89.35C274.694 89.75 273.561 90.3167 272.627 91.05L269.427 84.6C270.927 83.6 272.744 82.8333 274.877 82.3C277.044 81.7333 279.211 81.45 281.377 81.45ZM281.027 103.45C282.127 103.45 283.094 103.183 283.927 102.65C284.761 102.117 285.361 101.333 285.727 100.3V97.95H281.627C278.861 97.95 277.477 98.8667 277.477 100.7C277.477 101.533 277.794 102.2 278.427 102.7C279.061 103.2 279.927 103.45 281.027 103.45Z" fill="black"/>
<path d="M315.464 109.45C312.464 109.45 309.781 108.85 307.414 107.65C305.048 106.45 303.198 104.783 301.864 102.65C300.564 100.517 299.914 98.1 299.914 95.4C299.914 92.7 300.564 90.3 301.864 88.2C303.198 86.0667 305.048 84.4167 307.414 83.25C309.781 82.05 312.464 81.45 315.464 81.45C318.531 81.45 321.181 82.1167 323.414 83.45C325.648 84.75 327.231 86.5667 328.164 88.9L320.814 92.65C319.581 90.2167 317.781 89 315.414 89C313.714 89 312.298 89.5667 311.164 90.7C310.064 91.8333 309.514 93.4 309.514 95.4C309.514 97.4333 310.064 99.0333 311.164 100.2C312.298 101.333 313.714 101.9 315.414 101.9C317.781 101.9 319.581 100.683 320.814 98.25L328.164 102C327.231 104.333 325.648 106.167 323.414 107.5C321.181 108.8 318.531 109.45 315.464 109.45Z" fill="black"/>
<path d="M343.291 81.45C347.791 81.45 351.225 82.4833 353.591 84.55C355.958 86.5833 357.141 89.7167 357.141 93.95V109H348.291V105.5C346.925 108.133 344.258 109.45 340.291 109.45C338.191 109.45 336.375 109.083 334.841 108.35C333.308 107.617 332.141 106.633 331.341 105.4C330.575 104.133 330.191 102.7 330.191 101.1C330.191 98.5333 331.175 96.55 333.141 95.15C335.108 93.7167 338.141 93 342.241 93H347.641C347.475 90.1333 345.558 88.7 341.891 88.7C340.591 88.7 339.275 88.9167 337.941 89.35C336.608 89.75 335.475 90.3167 334.541 91.05L331.341 84.6C332.841 83.6 334.658 82.8333 336.791 82.3C338.958 81.7333 341.125 81.45 343.291 81.45ZM342.941 103.45C344.041 103.45 345.008 103.183 345.841 102.65C346.675 102.117 347.275 101.333 347.641 100.3V97.95H343.541C340.775 97.95 339.391 98.8667 339.391 100.7C339.391 101.533 339.708 102.2 340.341 102.7C340.975 103.2 341.841 103.45 342.941 103.45Z" fill="black"/>
<path d="M380.788 81.45C384.155 81.45 386.855 82.45 388.888 84.45C390.955 86.45 391.988 89.4667 391.988 93.5V109H382.488V95.05C382.488 91.35 381.005 89.5 378.038 89.5C376.405 89.5 375.088 90.0333 374.088 91.1C373.121 92.1667 372.638 93.7667 372.638 95.9V109H363.138V81.9H372.188V84.85C373.255 83.75 374.521 82.9167 375.988 82.35C377.455 81.75 379.055 81.45 380.788 81.45Z" fill="black"/>
<path d="M401.952 109.45C400.352 109.45 399.002 108.917 397.902 107.85C396.802 106.783 396.252 105.433 396.252 103.8C396.252 102.133 396.786 100.783 397.852 99.75C398.952 98.7167 400.319 98.2 401.952 98.2C403.619 98.2 404.986 98.7167 406.052 99.75C407.119 100.783 407.652 102.133 407.652 103.8C407.652 105.433 407.102 106.783 406.002 107.85C404.936 108.917 403.586 109.45 401.952 109.45Z" fill="black"/>
</g>
<defs>
<clipPath id="clip0_2_2">
<rect width="496" height="139" fill="white"/>
</clipPath>
</defs>
</svg>
