<svg width="30" height="30" viewBox="0 0 30 30" fill="none" xmlns="http://www.w3.org/2000/svg">
<path d="M28.4766 0.351562H1.52344C0.875244 0.351562 0.351562 0.875244 0.351562 1.52344V28.4766C0.351562 29.1248 0.875244 29.6484 1.52344 29.6484H28.4766C29.1248 29.6484 29.6484 29.1248 29.6484 28.4766V1.52344C29.6484 0.875244 29.1248 0.351562 28.4766 0.351562ZM22.8845 10.9607C22.8955 11.1328 22.8955 11.3123 22.8955 11.488C22.8955 16.864 18.8013 23.0566 11.3196 23.0566C9.01245 23.0566 6.87378 22.3865 5.07202 21.2329C5.40161 21.2695 5.71655 21.2842 6.05347 21.2842C7.95776 21.2842 9.70825 20.6396 11.1035 19.5483C9.31641 19.5117 7.81494 18.3398 7.30225 16.7285C7.92847 16.8201 8.49243 16.8201 9.13696 16.6553C8.21677 16.4683 7.38968 15.9686 6.7962 15.2409C6.20273 14.5132 5.87947 13.6026 5.88135 12.6636V12.6123C6.41968 12.9163 7.05322 13.103 7.71606 13.1287C7.15885 12.7573 6.70187 12.2542 6.38566 11.6639C6.06945 11.0737 5.90377 10.4145 5.90332 9.74487C5.90332 8.98682 6.10107 8.29468 6.4563 7.69409C7.47767 8.95143 8.75219 9.97977 10.197 10.7123C11.6418 11.4448 13.2246 11.8651 14.8425 11.9458C14.2676 9.18091 16.333 6.94336 18.8159 6.94336C19.9878 6.94336 21.0425 7.43408 21.7859 8.2251C22.7051 8.05298 23.584 7.70874 24.3677 7.24731C24.0637 8.18848 23.4265 8.98315 22.5806 9.48486C23.4009 9.39697 24.1919 9.16992 24.9243 8.85132C24.3713 9.66431 23.6792 10.3857 22.8845 10.9607Z" fill="white"/>
</svg>
