<svg width="30" height="30" viewBox="0 0 30 30" fill="none" xmlns="http://www.w3.org/2000/svg">
<g clip-path="url(#clip0_19_114)">
<path d="M12.6292 11.3559L19.0655 15.0135L12.6292 18.6711V11.3559ZM30.2885 3.1009V26.899C30.2885 28.6906 28.8349 30.1442 27.0433 30.1442H3.24519C1.45358 30.1442 0 28.6906 0 26.899V3.1009C0 1.30929 1.45358 -0.144287 3.24519 -0.144287H27.0433C28.8349 -0.144287 30.2885 1.30929 30.2885 3.1009ZM27.4489 15.0202C27.4489 15.0202 27.4489 10.9908 26.9351 9.05719C26.6511 7.98898 25.8196 7.15063 24.7581 6.86668C22.8448 6.3461 15.1442 6.3461 15.1442 6.3461C15.1442 6.3461 7.44366 6.3461 5.53035 6.86668C4.4689 7.15063 3.63732 7.98898 3.35337 9.05719C2.83954 10.984 2.83954 15.0202 2.83954 15.0202C2.83954 15.0202 2.83954 19.0497 3.35337 20.9833C3.63732 22.0515 4.4689 22.856 5.53035 23.14C7.44366 23.6538 15.1442 23.6538 15.1442 23.6538C15.1442 23.6538 22.8448 23.6538 24.7581 23.1332C25.8196 22.8493 26.6511 22.0447 26.9351 20.9765C27.4489 19.0497 27.4489 15.0202 27.4489 15.0202Z" fill="white"/>
</g>
<defs>
<clipPath id="clip0_19_114">
<rect width="30" height="30" fill="white"/>
</clipPath>
</defs>
</svg>
